SplineFontDB: 3.0
FontName: ComixNo2CLM-Bold
FullName: Comix No2 CLM Bold
FamilyName: Comix No2 CLM
Weight: Bold
Copyright: Copyright (c) 2004-2022 by Maxim Iorsh (iorsh@users.sourceforge.net). Distributed under the terms of GNU General Public License version 2(http://www.gnu.org/licenses/gpl.html). \nAll rights reserved.
UComments: "Bitmap scaled 140%"
Version: 1.01
ItalicAngle: 0
UnderlinePosition: -100
UnderlineWidth: 50
Ascent: 800
Descent: 400
InvalidEm: 0
LayerCount: 2
Layer: 0 0 "Back" 1
Layer: 1 0 "Fore" 0
FSType: 0
OS2Version: 0
OS2_WeightWidthSlopeOnly: 0
OS2_UseTypoMetrics: 0
CreationTime: 1591208105
ModificationTime: 1666116215
PfmFamily: 81
TTFWeight: 700
TTFWidth: 5
LineGap: 90
VLineGap: 0
Panose: 0 0 0 0 0 0 0 0 0 0
OS2TypoAscent: 0
OS2TypoAOffset: 1
OS2TypoDescent: 0
OS2TypoDOffset: 1
OS2TypoLinegap: 0
OS2WinAscent: 0
OS2WinAOffset: 1
OS2WinDescent: 0
OS2WinDOffset: 1
HheadAscent: 0
HheadAOffset: 1
HheadDescent: 0
HheadDOffset: 1
OS2Vendor: 'PfEd'
MarkAttachClasses: 1
DEI: 91125
LangName: 1040 "" "" "Nero"
LangName: 1036 "" "" "Gras"
LangName: 1031 "" "" "Fett"
LangName: 1034 "" "" "Nigrita"
LangName: 1049 "" "" "+BB4EMQRLBEcEPQRLBDkA"
LangName: 1038 "" "" "F+AOkA-lk+APYA-v+AOkA-r"
LangName: 1033
Encoding: Custom
UnicodeInterp: none
NameList: AGL For New Fonts
DisplaySize: -96
AntiAlias: 1
FitToEm: 1
WinInfo: 0 12 5
BeginPrivate: 0
EndPrivate
Grid
-54 600 m 25
 1062 600 l 1049
EndSplineSet
BeginChars: 62 62

StartChar: .notdef
Encoding: 0 -1 0
Width: 870
VWidth: 1000
Flags: W
HStem: -130 140<240 630> 600 140<240 630>
VStem: 100 140<10 600> 630 140<10 600>
LayerCount: 2
Fore
SplineSet
240 600 m 1
 240 10 l 5
 630 10 l 5
 630 600 l 1
 240 600 l 1
100 740 m 5
 770 740 l 5
 770 -130 l 1
 100 -130 l 1
 100 740 l 5
EndSplineSet
Validated: 2097153
EndChar

StartChar: exclam
Encoding: 2 33 1
Width: 279
VWidth: 1000
Flags: W
HStem: -20 187.199<85.0318 214.168>
VStem: 56 187.199<9.03174 138.168> 76.0869 158.711<277.566 681.022> 86.6631 159.678<290.561 692.534>
LayerCount: 2
Back
SplineSet
202.445 548.666 m 0
 202.445 458.564 196.373 363.738 183.597 263.668 c 0
 180.102 236.29 155.046 216.907 127.668 220.403 c 0
 100.29 223.898 80.9074 248.954 84.4025 276.332 c 0
 96.677 372.48 102.445 463.058 102.445 548.666 c 0
 102.445 588.086 101.222 626.453 98.8468 663.829 c 0
 97.0963 691.373 118.03 715.149 145.575 716.899 c 0
 173.119 718.65 196.895 697.716 198.645 670.171 c 0
 201.158 630.641 202.445 590.155 202.445 548.666 c 0
56 52 m 4
 56 91.7441 88.2559 124 128 124 c 4
 167.744 124 200 91.7441 200 52 c 4
 200 12.2559 167.744 -20 128 -20 c 4
 88.2559 -20 56 12.2559 56 52 c 4
EndSplineSet
Fore
SplineSet
234.798 326.279 m 0xa0
 229.206 282.476 189.115 251.463 145.312 257.056 c 0
 101.507 262.647 70.4941 302.738 76.0869 346.542 c 0xa0
 88.8376 446.417 92.8661 531.496 86.6631 629.087 c 0
 83.8623 673.158 117.356 711.199 161.428 714 c 0
 205.499 716.801 243.54 683.307 246.341 639.235 c 0x90
 253.203 531.24 248.725 435.358 234.798 326.279 c 0xa0
56 73.5996 m 0xc0
 56 125.267 97.9326 167.199 149.6 167.199 c 0
 201.267 167.199 243.199 125.267 243.199 73.5996 c 0
 243.199 21.9326 201.267 -20 149.6 -20 c 0
 97.9326 -20 56 21.9326 56 73.5996 c 0xc0
EndSplineSet
Validated: 524321
EndChar

StartChar: quotedbl
Encoding: 3 34 2
Width: 494
VWidth: 1000
Flags: W
VStem: 56.0039 159.986<518.252 716.737> 296.004 159.986<518.169 716.737>
LayerCount: 2
Back
SplineSet
311.233 421.723 m 0
 355.246 485.904 366.528 577.472 367.993 687.333 c 0
 368.361 714.931 346.263 737.627 318.665 737.995 c 0
 291.067 738.363 268.371 716.265 268.003 688.667 c 0
 266.636 586.191 250.702 510.271 228.763 478.277 c 0
 213.153 455.516 218.958 424.373 241.721 408.765 c 0
 264.482 393.155 295.625 398.96 311.233 421.723 c 0
111.233 421.723 m 0
 155.246 485.904 166.528 577.472 167.993 687.333 c 0
 168.361 714.931 146.263 737.627 118.665 737.995 c 0
 91.0674 738.363 68.3711 716.265 68.0029 688.667 c 0
 66.6357 586.191 50.7021 510.271 28.7627 478.277 c 0
 13.1533 455.516 18.958 424.373 41.7207 408.765 c 0
 64.4824 393.155 95.625 398.96 111.233 421.723 c 0
EndSplineSet
Fore
SplineSet
405.974 434.506 m 0
 380.999 398.087 331.172 388.798 294.753 413.773 c 0
 258.334 438.748 249.039 488.579 274.02 524.994 c 0
 285 541 294.96 581.13 296.004 659.317 c 0
 296.593 703.474 332.908 738.832 377.062 738.243 c 0
 421.221 737.654 456.579 701.339 455.99 657.183 c 0
 454.828 570.199 446.574 493.742 405.974 434.506 c 0
165.974 434.506 m 0
 140.999 398.087 91.1719 388.798 54.7529 413.773 c 0
 18.333 438.748 9 490 34.0195 524.994 c 0
 45.6476 541.258 54.9615 581.131 56.0039 659.317 c 0
 56.5928 703.473 92.9082 738.832 137.063 738.243 c 0
 181.22 737.654 216.579 701.339 215.99 657.183 c 0
 214.828 570.199 206.578 493.732 165.974 434.506 c 0
EndSplineSet
Validated: 524321
EndChar

StartChar: percent
Encoding: 4 37 3
Width: 842
VWidth: 1000
Flags: W
HStem: -14.9219 120<620.607 672.596> 195.781 120<631.6 681.563> 310.547 120.022<207.896 254.134>
VStem: 40 180.938<433.481 510.042> 260.031 120<436.809 510.567> 499.359 120<105.736 192.143> 682.703 120<112.438 195.113>
LayerCount: 2
Back
SplineSet
529.016 211 m 20
 508.016 177 503.016 125 518.016 88 c 12
 532.581 52.0732 571.424 38.5283 609.016 48 c 28
 659.398 60.6943 682.643 101.721 691.016 153 c 28
 696.681 187.694 688.497 216.076 661.016 238 c 28
 631.859 261.26 599.016 258 566.016 249 c 1036
102.016 496 m 20
 69.0156 499 50.5703 477.812 50.0156 451 c 28
 49.085 406.038 89.4346 377.919 134.016 372 c 28
 191.438 364.376 247.7 386.723 265.016 442 c 28
 281.91 495.929 255.142 564.4 199.016 571 c 28
 146.543 577.171 109.016 531 111.016 468 c 1036
527.389 416.845 m 2
 314.938 -33.8154 l 2
 296.107 -73.7598 248.406 -90.8945 208.462 -72.0645 c 0
 168.519 -53.2344 151.383 -5.5332 170.213 34.4111 c 2
 382.742 485.235 l 2
 415.634 554.6 434.068 616.555 479.729 687.014 c 0
 503.745 724.073 553.312 734.658 590.372 710.642 c 0
 627.43 686.626 638.016 637.058 614 600 c 0
 582.874 551.971 565.739 497.719 527.389 416.845 c 2
EndSplineSet
Fore
SplineSet
577.391 416.844 m 2x9e
 364.938 -33.8125 l 2
 346.109 -73.7656 298.406 -90.8906 258.469 -72.0625 c 0
 218.516 -53.2344 201.375 -5.53125 220.219 34.4062 c 2
 432.75 485.234 l 2
 465.641 554.594 484.062 616.562 529.734 687.016 c 0
 553.75 724.078 603.312 734.656 640.375 710.641 c 0
 677.438 686.625 688.016 637.062 664 600 c 0
 632.875 551.969 615.734 497.719 577.391 416.844 c 2x9e
207.896 430.569 m 1xbe
 241.099 431.241 260.031 447.218 260.031 475.5 c 0
 260.031 500.925 248.41 511.547 239.703 511.547 c 0
 235.141 511.547 220.938 508.906 220.938 472.781 c 0
 220.938 455.122 218.75 445.5 207.896 430.569 c 1xbe
119.071 553.137 m 1
 141.153 598.407 182.685 631.547 239.703 631.547 c 0
 327.176 631.547 380.031 558 380.031 475.5 c 0
 380.031 369.666 292.869 310.547 205.656 310.547 c 0
 119.394 310.547 40 361.843 40 449.484 c 0
 40 498.382 71.6789 541.614 119.071 553.137 c 1
558.954 267.539 m 1
 571.141 304.891 610.799 315.781 658.938 315.781 c 0xde
 736.587 315.781 802.703 251.334 802.703 172.766 c 0
 802.703 83.444 737.386 -14.9219 635.812 -14.9219 c 0
 560.616 -14.9219 499.359 40.9262 499.359 136.203 c 0
 499.359 184.12 515.474 252.144 558.954 267.539 c 1
636.01 192.213 m 1
 634.564 187.837 632.589 183.561 630.062 179.469 c 0
 624.5 170.453 619.359 152.594 619.359 136.203 c 0
 619.359 128.811 617.782 105.078 635.812 105.078 c 0
 654.391 105.078 669 115.667 676.031 139.109 c 0
 678.684 147.955 682.703 160.419 682.703 172.766 c 0
 682.703 188.815 675.477 195.781 658.938 195.781 c 0
 653.686 195.781 645.811 194.662 636.01 192.213 c 1
EndSplineSet
Validated: 524321
EndChar

StartChar: parenleft
Encoding: 6 40 4
Width: 385
VWidth: 1000
Flags: W
VStem: 30 160<148.378 440.684>
LayerCount: 2
Back
SplineSet
276.78 675.98 m 20
 184.38 611.3 105.751 468.29 101.22 310.076 c 28
 96.8252 156.624 151.116 49.5078 250.908 -53.9805 c 1036
EndSplineSet
Fore
SplineSet
190 292.961 m 0
 190 170.291 230.268 92.0381 317.523 1.5498 c 0
 348.177 -30.2383 347.255 -80.915 315.467 -111.568 c 0
 283.679 -142.221 233.002 -141.3 202.349 -109.511 c 0
 96.8818 -0.137695 30 127.806 30 292.961 c 0
 30 486 118.027 656.186 239.931 741.519 c 0
 276.107 766.843 326.021 758.035 351.347 721.858 c 0
 376.671 685.68 367.863 635.766 331.685 610.442 c 0
 260.94 560.921 190 430 190 292.961 c 0
EndSplineSet
Validated: 524321
EndChar

StartChar: parenright
Encoding: 7 41 5
Width: 385
VWidth: 1000
Flags: W
VStem: 195.804 160<182.175 473.63>
LayerCount: 2
Fore
SplineSet
195.804 329.047 m 0
 195.804 451.717 155.536 529.971 68.2803 620.458 c 0
 37.627 652.246 38.5498 702.923 70.3379 733.576 c 0
 102.126 764.229 152.803 763.308 183.456 731.52 c 0
 288.923 622.146 355.804 494.202 355.804 329.047 c 0
 355.804 141 267.777 -34.1774 145.874 -119.511 c 0
 109.696 -144.835 59.7812 -136.027 34.458 -99.8496 c 0
 9.13379 -63.6729 17.9424 -13.7578 54.1182 11.5664 c 0
 124.864 61.0873 195.804 191 195.804 329.047 c 0
EndSplineSet
Validated: 524321
EndChar

StartChar: asterisk
Encoding: 8 42 6
Width: 596
VWidth: 1000
Flags: W
VStem: 205.567 149.465<406.226 576.555>
LayerCount: 2
Back
SplineSet
319.025 304.375 m 29
 426.375 155.225 l 1053
121.425 354.725 m 29
 315.225 310.075 l 29
 517.575 353.775 l 1053
302.875 505.775 m 29
 315.225 321.475 l 29
 196.475 156.175 l 1053
EndSplineSet
Fore
SplineSet
212.87 406.226 m 5
 205.567 515.174 l 6
 202.809 556.418 234.039 592.146 275.284 594.905 c 4
 316.547 597.681 352.273 566.434 355.032 525.188 c 6
 363.252 402.468 l 5
 494.217 430.743 l 6
 534.625 439.472 574.516 413.758 583.244 373.349 c 4
 591.971 332.939 566.258 293.049 525.831 284.321 c 6
 420.835 261.651 l 5
 473.234 188.84 l 6
 497.393 155.286 489.753 108.456 456.197 84.2979 c 4
 422.644 60.1396 375.798 67.7793 351.655 101.334 c 6
 289.026 188.347 l 5
 227.285 102.404 l 6
 203.159 68.833 156.33 61.1592 122.759 85.2676 c 4
 89.1709 109.393 81.4971 156.223 105.623 189.81 c 6
 159.488 264.792 l 5
 69.3262 285.559 l 6
 29.0342 294.854 3.87207 335.079 13.1504 375.371 c 4
 22.4463 415.664 62.6719 440.825 102.964 431.546 c 6
 212.87 406.226 l 5
EndSplineSet
Validated: 524321
EndChar

StartChar: plus
Encoding: 9 43 7
Width: 587
VWidth: 1000
Flags: W
HStem: 228.078 159.797<50.9036 214.218 377.21 528.85>
VStem: 217.225 159.985<69.7871 220.79 383.669 546.348>
LayerCount: 2
Back
SplineSet
344.109 348.167 m 1
 396.44 348.227 448.614 348.605 500.688 349.984 c 0
 528.281 350.703 551.25 328.906 551.984 301.312 c 0
 552.719 273.734 530.906 250.75 503.312 250.016 c 0
 450.159 248.612 396.801 247.821 343.226 247.769 c 1
 342.267 194.529 340.504 141.059 337.812 87.3281 c 0
 336.438 59.7656 312.938 38.5156 285.375 39.8906 c 0
 257.812 41.2812 236.562 64.7656 237.938 92.3281 c 0
 240.555 144.586 242.279 196.652 243.224 248.557 c 1
 188.239 249.492 133.009 251.282 77.5 254.062 c 0
 49.9375 255.438 28.6875 278.938 30.0625 306.5 c 0
 31.4375 334.062 54.9375 355.312 82.5 353.938 c 0
 136.564 351.23 190.422 349.478 244.108 348.557 c 1
 244.097 402.692 243.318 456.658 241.891 510.516 c 0
 241.172 538.109 262.969 561.094 290.562 561.812 c 0
 318.156 562.547 341.125 540.734 341.859 513.156 c 0
 343.302 458.503 344.098 403.252 344.109 348.167 c 1
EndSplineSet
Fore
SplineSet
377.21 380.771 m 1
 410.421 380.599 443.546 380.667 476.617 381 c 0
 520.773 381.422 556.961 345.922 557.383 301.766 c 0
 557.805 257.609 522.305 221.422 478.148 221 c 0
 443.575 220.684 408.922 220.599 374.209 220.79 c 1
 373.104 186.128 371.691 151.377 369.945 116.531 c 0
 367.742 72.4375 330.148 38.4375 286.039 40.6406 c 0
 241.945 42.8438 207.93 80.4375 210.148 124.547 c 0
 211.805 157.653 213.154 190.699 214.218 223.689 c 1
 178.247 224.812 142.179 226.266 106.008 228.078 c 0
 61.8984 230.281 27.8984 267.875 30.1016 311.969 c 0
 32.3203 356.078 69.8984 390.078 114.008 387.875 c 0
 148.479 386.145 182.883 384.752 217.225 383.669 c 1
 217.426 418.232 217.346 452.708 217.023 487.156 c 0
 216.602 531.312 252.102 567.484 296.258 567.906 c 0
 340.414 568.344 376.586 532.844 377.008 488.688 c 0
 377.361 452.774 377.431 416.818 377.21 380.771 c 1
EndSplineSet
Validated: 524321
EndChar

StartChar: one
Encoding: 15 49 8
Width: 424
VWidth: 1000
Flags: W
VStem: 209.845 139.999<13.8078 260.305> 240.785 136.277<498.935 627.467>
LayerCount: 2
Back
SplineSet
89.0752 237.026 m 20
 190.133 328.727 271.512 426.053 326.925 552.921 c 12
 330.87 561.954 325.996 571.503 319.492 577.077 c 13
 306.474 458.724 284.187 314.264 284.187 199.862 c 4
 284.187 149.112 284.187 96.7324 297.193 54.9229 c 1036
EndSplineSet
Fore
SplineSet
240.785 543.427 m 1x40
 246.333 589.62 247.187 625.497 289.422 642.172 c 0
 314.75 652.188 340.031 647.953 360.703 630.234 c 0
 394.046 601.655 393.625 542.763 377.062 503.562 c 1x40
 364.491 399.394 349.844 286.963 349.844 199.859 c 0
 349.844 149.188 351.5 102.062 359.688 75.7188 c 0
 371.172 38.8281 350.547 -0.4375 313.641 -11.9219 c 0
 276.75 -23.3906 237.484 -2.76562 226.016 34.125 c 0
 208.218 91.2969 209.845 148.906 209.845 199.859 c 0x80
 209.845 220.512 210.491 241.806 211.628 263.496 c 1
 186.283 236.397 159.582 210.429 131.766 185.188 c 0
 103.156 159.219 58.8594 161.375 32.8906 189.984 c 0
 6.92188 218.609 9.07812 262.906 37.6875 288.859 c 0
 123.745 366.943 191.364 445.694 240.785 543.427 c 1x40
EndSplineSet
Validated: 524321
EndChar

StartChar: two
Encoding: 16 50 9
Width: 565
VWidth: 1000
Flags: W
HStem: -17.2969 140<257.162 551.395> 507.656 140<201.142 304.192>
VStem: 49.6387 140<426.02 496.783> 334.436 140<355.409 478.956>
LayerCount: 2
Back
SplineSet
174.323 366.295 m 20
 141.821 387.59 115.302 410.278 115.302 458.769 c 4
 115.302 518.727 173.928 577.657 236.371 577.657 c 4
 349.923 577.657 400.095 480.574 400.095 409.034 c 4
 400.095 309.62 282.537 234.446 202.196 179.546 c 12
 155.406 147.573 99.0664 106.147 95.3496 81.0615 c 5
 208.7 49.4717 365.718 48.543 497.65 57.834 c 1036
EndSplineSet
Fore
SplineSet
253.481 126.794 m 1
 288.406 124.008 325.032 122.703 361.686 122.703 c 0
 407.623 122.703 453.732 124.609 497.076 127.656 c 0
 535.623 130.375 569.107 101.297 571.826 62.75 c 0
 574.529 24.2031 545.451 -9.28125 506.904 -12 c 0
 460.701 -15.25 411.482 -17.2969 361.686 -17.2969 c 0
 264.701 -17.2969 165.967 -10.0781 80.9043 13.625 c 0
 45.2949 23.5469 24.9693 54.7745 30.4512 91.3281 c 0
 40 155 118.757 204.35 167.045 237.344 c 0
 250.816 294.596 334.436 361 334.436 409.031 c 0
 334.436 451.266 307.217 507.656 240.717 507.656 c 0
 215.78 507.656 189.639 476.922 189.639 458.766 c 0
 189.639 448.312 187.748 444.031 217.03 424.844 c 0
 249.342 403.672 258.389 360.25 237.217 327.938 c 0
 216.045 295.609 172.623 286.562 140.295 307.75 c 0
 103.686 331.734 49.6387 376.719 49.6387 458.766 c 0
 49.6387 556.859 138.153 647.656 240.717 647.656 c 0
 402.123 647.656 474.436 509.234 474.436 409.031 c 0
 474.436 262.052 326.478 175.797 253.481 126.794 c 1
EndSplineSet
Validated: 524321
EndChar

StartChar: three
Encoding: 17 51 10
Width: 646
VWidth: 1000
Flags: W
HStem: -15.0781 140<201.974 421.113> 510.172 140<248.87 333.463>
VStem: 92.7656 137.984<406.796 492.051> 469 140<174.16 289.729>
LayerCount: 2
Back
SplineSet
160.899 461.815 m 16
 170.993 520.688 228.366 580.179 306.263 580.179 c 0
 362.204 580.179 403.98 543.949 403.98 491.435 c 0
 403.98 434.735 356.29 385.792 286.235 382.378 c 1
 306.901 388.836 326.805 392.23 347.369 392.23 c 0
 436.626 392.23 538.144 335.679 538.144 236.816 c 0
 538.144 143.51 448.172 54.916 353.316 54.916 c 8
 248.072 54.916 155.604 71.7568 98 142.298 c 1032
EndSplineSet
Fore
SplineSet
313.633 459.861 m 1
 328.819 468.081 334.844 481.304 334.844 491.438 c 0
 334.844 498.781 330.5 510.172 307.125 510.172 c 0
 269.089 510.172 236.165 481.911 230.75 449.984 c 0
 224.219 411.906 188.016 386.297 149.922 392.828 c 0
 111.844 399.359 86.2344 435.562 92.7656 473.641 c 0
 110.171 575.126 200.896 650.172 307.125 650.172 c 0
 397.234 650.172 474.844 586.25 474.844 491.438 c 0
 474.844 472.728 471.892 454.872 466.416 438.182 c 1
 539.108 406.854 609 336.976 609 236.812 c 0
 609 105.062 488.797 -15.0781 354.172 -15.0781 c 0
 244.438 -15.0781 123.781 1.10938 44.6406 98.0156 c 0
 20.2031 127.953 24.6562 172.078 54.5781 196.516 c 0
 84.5156 220.953 128.641 216.5 153.078 186.578 c 0
 189.188 142.344 254.141 124.922 354.172 124.922 c 0
 411.953 124.922 469 185.109 469 236.812 c 0
 469 295.323 395.94 322.234 348.219 322.234 c 1
 298 307 230.339 301.645 218.172 370.141 c 0
 207.939 427.723 252 453 313.633 459.861 c 1
EndSplineSet
Validated: 524321
EndChar

StartChar: four
Encoding: 18 52 11
Width: 557
VWidth: 1000
Flags: W
VStem: 362.021 142.156<325.414 452.129>
LayerCount: 2
Back
SplineSet
440.839 399.768 m 20
 433.053 341.086 441.067 289.131 446.302 231.322 c 28
 452.562 162.18 454.078 123.016 459.049 53.7705 c 1052
367.997 578.229 m 20
 290.9 462.798 188.039 371.866 93.9307 277.758 c 13
 198.773 270.769 289.821 262.306 390.76 252.264 c 1052
EndSplineSet
Fore
SplineSet
374.062 182.978 m 1
 274.866 192.831 185.714 201.085 83.2236 207.906 c 0
 24.3619 211.841 -6.21879 282.686 38.3799 327.25 c 0
 134.631 423.516 233.192 511.484 303.724 617.109 c 0
 325.192 649.234 368.692 657.906 400.817 636.438 c 0
 432.958 614.984 441.614 571.484 420.146 539.344 c 0
 368.317 461.75 307.442 396.172 246.754 335.625 c 1
 285.036 332.265 322.997 328.676 362.021 324.849 c 1
 360.856 354.123 361.505 379.775 365.396 408.969 c 0
 370.474 447.281 405.677 474.234 443.989 469.156 c 0
 482.286 464.078 509.255 428.859 504.177 390.562 c 0
 497.092 337.312 504.587 296.974 509.958 237.641 c 0
 516.364 166.922 517.927 126.891 522.817 58.7812 c 0
 525.583 20.2344 496.552 -13.2812 458.005 -16.0469 c 0
 419.458 -18.8125 385.942 10.2188 383.177 48.7656 c 0
 379.259 103.237 377.493 138.49 374.062 182.978 c 1
EndSplineSet
Validated: 524321
EndChar

StartChar: five
Encoding: 19 53 12
Width: 572
VWidth: 1000
Flags: W
HStem: -16.4375 140<211.412 348.317> 333.234 140<219.328 333.88> 506.672 140<242.35 525.922>
VStem: 375.781 140<149.961 288.926>
LayerCount: 2
Back
SplineSet
498.938 574.408 m 20
 459.787 577.14 431.354 578.329 388.767 572.587 c 20
 307.73 561.661 247.636 548.914 178.437 530.703 c 5
 169.331 472.43 173.884 415.067 183.899 360.437 c 5
 213.036 383.199 253.977 403.23 304.999 403.23 c 4
 406.81 403.23 470.713 298.123 470.713 212.021 c 12
 470.713 124.64 398.4 51.9668 312.282 53.5918 c 4
 233.149 55.085 166.204 100.727 126.221 160.698 c 1036
EndSplineSet
Fore
SplineSet
218.578 465.516 m 1
 236 470.3 256 473.234 280.062 473.234 c 0
 429.083 473.234 515.781 324.706 515.781 212.016 c 0
 515.781 88.125 414.859 -16.4375 290.172 -16.4375 c 0
 180 -16.4375 93.3706 46.3662 43.0469 121.875 c 0
 21.6094 154.016 30.2969 197.5 62.4531 218.938 c 0
 94.6094 240.375 138.094 231.672 159.531 199.531 c 0
 188.586 155.949 240.185 123.562 290.172 123.562 c 0
 335.703 123.562 375.781 163.625 375.781 212.016 c 0
 375.781 254.797 340 333.234 280.062 333.234 c 0
 247.906 333.234 222.094 320.922 202.062 305.281 c 0
 181.797 289.453 158.757 287.759 134.094 295 c 0
 83 310 78.5781 396.244 78.5781 465.516 c 0
 78.5781 528.55 80.9497 583.986 135.688 598.391 c 0
 217.839 620.017 346 646.672 422.156 646.672 c 0
 441.531 646.672 459.625 645.578 478.875 644.234 c 0
 517.422 641.547 546.516 608.078 543.828 569.531 c 0
 541.141 530.984 507.672 501.891 469.125 504.578 c 0
 450.703 505.859 436.078 506.672 422.156 506.672 c 0
 370 506.672 275 490 218.703 474.922 c 1
 218.624 471.781 218.578 468.656 218.578 465.516 c 1
EndSplineSet
Validated: 524321
EndChar

StartChar: six
Encoding: 20 54 13
Width: 665
VWidth: 1000
Flags: W
HStem: -16.0938 140<224.807 434.746> 273.484 140<277.857 467.675> 510.047 140<342.31 519.275>
VStem: 28 203.188<153.722 234.5> 487.531 140<166.258 252.281>
LayerCount: 2
Back
SplineSet
466.955 580.043 m 4
 307.051 580.043 201.303 490.686 140.418 388.558 c 4
 112.583 341.867 99.6855 301.644 99.6855 254.949 c 4
 99.6855 128.984 202.589 53.9062 324.512 53.9062 c 4
 455.39 53.9062 559.225 130.249 559.225 198.073 c 4
 559.225 290.983 488.838 343.48 386.637 343.48 c 4
 273.769 343.48 162.881 282.33 162.88 192.185 c 1028
EndSplineSet
Fore
SplineSet
210.524 371.162 m 1
 262.096 399.513 323.147 413.484 384.953 413.484 c 0
 527.41 413.484 627.531 328.161 627.531 198.078 c 0
 627.531 65 458.084 -16.0938 322.828 -16.0938 c 0
 169.406 -16.0938 28 84.1875 28 254.953 c 0
 28 315.188 46.7344 370.938 78.6094 424.406 c 0
 148.422 541.516 276.016 650.047 465.266 650.047 c 0
 503.906 650.047 535.266 618.688 535.266 580.047 c 0
 535.266 541.406 503.906 510.047 465.266 510.047 c 0
 344.745 510.047 263.379 449.949 210.524 371.162 c 1
219.321 153.198 m 1
 245.8 134.432 281.285 123.906 322.828 123.906 c 0
 395.634 123.906 487.531 165 487.531 198.078 c 0
 487.531 253.82 444.137 273.484 384.953 273.484 c 0
 320.291 273.484 231.188 241.241 231.188 192.188 c 0
 231.188 177.758 226.814 164.343 219.321 153.198 c 1
EndSplineSet
Validated: 524289
EndChar

StartChar: seven
Encoding: 21 55 14
Width: 597
VWidth: 1000
Flags: W
HStem: 154.422 138.562<95.2366 285.466> 494.518 138.279<10.803 432.322>
LayerCount: 2
Back
SplineSet
412.584 269.226 m 20
 325.248 246.928 269.502 235.778 185.883 223.7 c 1036
97.6191 568.396 m 28
 268.647 566.222 377.277 567.467 536.154 562.821 c 12
 553.857 562.304 567.059 539.76 559.382 523.799 c 20
 524.075 450.4 501.05 394.571 473.904 319.397 c 4
 437.669 219.055 418.158 152.159 401.435 54.6035 c 1036
EndSplineSet
Fore
SplineSet
432.322 494.518 m 1
 308.149 497.166 207.921 496.538 61.125 498.406 c 0
 22.4844 498.891 -8.46875 530.656 -7.98438 569.281 c 0
 -7.5 607.922 24.2656 638.875 62.9062 638.391 c 0
 233.047 636.234 347.015 638.419 502.594 632.797 c 0
 580 630 618 557 586.859 493.453 c 0
 551.884 422.082 530.766 369.391 504.141 295.625 c 0
 468.453 196.828 450.906 136.609 434.812 42.7812 c 0
 428.297 4.6875 392.078 -20.9219 354 -14.3906 c 0
 315.906 -7.85938 290.297 28.3438 296.828 66.4375 c 0
 304.145 109.092 312.187 146.829 321.793 183.833 c 1
 267.898 171.626 220.339 163.097 160.281 154.422 c 0
 122.031 148.891 86.5156 175.453 81 213.688 c 0
 75.4688 251.938 102.016 287.453 140.266 292.984 c 0
 221.141 304.666 294 319 370.939 338.973 c 1
 390.861 394.225 409.906 444.649 432.322 494.518 c 1
EndSplineSet
Validated: 524321
EndChar

StartChar: eight
Encoding: 22 56 15
Width: 646
VWidth: 1000
Flags: W
HStem: -13.4531 140<194.021 454.57> 512.547 140<268.397 423.266>
VStem: 35.3281 568.672<90.591 244>
LayerCount: 2
Back
SplineSet
215.981 542.954 m 20
 172.067 540.959 129.037 514.816 129.037 478.815 c 4
 129.037 440.514 208.445 405.421 253.374 386.862 c 12
 342.536 350.035 402.328 317.516 465.334 259.36 c 12
 497.446 229.72 525.037 201.411 525.037 164.535 c 12
 525.037 68.5156 386.726 56.1143 303.781 56.542 c 4
 208.777 57.0322 96.3564 87.6934 96.3564 177.811 c 4
 96.3564 238.647 183.146 291.164 231.786 322.576 c 4
 287.226 358.381 340.934 373.693 410.897 405.985 c 20
 457.414 427.455 504.827 450.129 504.827 479.619 c 4
 504.827 548.526 383.644 582.541 297.472 582.541 c 4
 225.585 582.541 176.776 570.097 142.229 521.004 c 1036
EndSplineSet
Fore
SplineSet
82.5439 534.714 m 1
 107 618 203.954 652.547 306.438 652.547 c 0
 413.883 652.547 583.797 611.229 583.797 479.625 c 0
 583.797 406.624 515.227 372.91 471.572 352.656 c 1
 529.585 309.222 604 244 604 164.531 c 0
 604 22 447.228 -13.4531 312.391 -13.4531 c 0
 177.218 -12.7682 35.3281 41.6765 35.3281 177.812 c 0
 35.3281 261 110.559 320.122 161.969 354.938 c 1
 108.319 384.748 36.26 451.062 82.5439 534.714 c 1
287.81 512.146 m 1
 278.752 493.715 261.797 479.74 241.162 474.85 c 1
 267.508 460.638 291.337 450.277 318.461 439.076 c 1
 351.985 452.786 393.134 469.677 424.601 486.451 c 1
 396.461 498.755 345.974 512.547 306.438 512.547 c 0
 299.817 512.547 293.609 512.409 287.81 512.146 c 1
317.148 285.096 m 1
 269.488 262.039 172.346 191.501 175.328 177.812 c 0
 184 138 254.392 126.851 313.109 126.547 c 0
 359.208 126.547 460.61 131.53 464 164.531 c 0
 466 184 368 260 317.148 285.096 c 1
EndSplineSet
Validated: 524321
EndChar

StartChar: nine
Encoding: 23 57 16
Width: 608
VWidth: 1000
Flags: W
HStem: -15.0312 140<205.312 387.525> 245.969 140<230.964 364.513> 508.143 140.169<251.051 351.982>
VStem: 77.6094 140<403.687 477.234> 432.125 140<168.461 284.473>
LayerCount: 2
Back
SplineSet
415.906 500.007 m 20
 409.562 539.657 389.221 578.305 349.074 578.305 c 4
 249.676 578.305 143.616 523.236 143.616 441.748 c 4
 143.616 365.516 218.332 315.965 298.525 315.965 c 4
 378.159 315.965 449.362 379.221 449.362 449.199 c 4
 449.362 479.226 437.597 508.834 417.765 529.738 c 5
 452.083 446.9 498.117 354.074 498.117 249.021 c 4
 498.117 124.481 409.085 54.9678 289.549 54.9678 c 12
 218.624 54.9678 136.247 101.423 95.3672 129.296 c 1036
EndSplineSet
Fore
SplineSet
460.642 588.203 m 1
 494.506 564.588 516.682 514.894 521.898 472.894 c 1
 547.779 409.041 572.125 334.388 572.125 249.016 c 0
 572.125 79.0781 443.969 -15.0312 293.547 -15.0312 c 0
 193.766 -15.0312 106.438 39.75 59.9375 71.4531 c 0
 28.0156 93.2344 19.7656 136.797 41.5312 168.734 c 0
 63.2969 200.656 106.875 208.906 138.797 187.125 c 0
 174.969 162.469 252.219 124.969 293.547 124.969 c 0
 377.109 124.969 432.125 166.359 432.125 249.016 c 0
 432.125 261.071 431.326 273.099 429.851 285.112 c 1
 393.723 260.833 349.834 245.969 302.531 245.969 c 0
 181.339 245.969 77.6094 327.436 77.6094 441.75 c 0
 77.6094 575.075 226.795 648.312 353.078 648.312 c 0
 403.765 648.312 440.873 618.275 460.642 588.203 c 1
345.255 508.143 m 1
 294.898 505.985 217.609 478.004 217.609 441.75 c 0
 217.609 409.835 257.61 385.969 302.531 385.969 c 0
 338.222 385.969 375.59 412.365 382.341 440.955 c 1
 360.247 455.023 352 477 345.255 508.143 c 1
EndSplineSet
Validated: 524321
EndChar

StartChar: semicolon
Encoding: 25 59 17
Width: 278
VWidth: 1000
Flags: W
HStem: 350.4 187.2<85.6235 214.759>
VStem: 56.5918 187.199<8.56916 138.168 379.432 508.568>
LayerCount: 2
Back
SplineSet
56 444 m 4
 56 483.744 88.2559 516 128 516 c 4
 167.744 516 200 483.744 200 444 c 4
 200 404.256 167.744 372 128 372 c 4
 88.2559 372 56 404.256 56 444 c 4
195.071 25.7749 m 1
 195.254 20.2246 195.344 14.6959 195.344 9.1875 c 0
 195.344 -68.4219 177.109 -140.797 147.828 -207.984 c 0
 136.812 -233.281 107.328 -244.859 82.0156 -233.828 c 0
 56.7188 -222.812 45.1406 -193.328 56.1719 -168.016 c 0
 78.2333 -117.374 91.9461 -66.0214 94.7908 -11.8945 c 1
 71.7444 0.113796 56 24.2261 56 52 c 0
 56 91.75 88.25 124 128 124 c 0
 167.75 124 200 91.75 200 52 c 0
 200 42.748 198.253 33.9022 195.071 25.7749 c 1
EndSplineSet
Fore
SplineSet
93.8037 -1.09766 m 1
 71.2051 15.9941 56.5967 43.1006 56.5967 73.5938 c 0
 56.5967 125.266 98.5195 167.203 150.191 167.203 c 0
 201.863 167.203 243.785 125.266 243.785 73.5938 c 0
 244.847 59.9531 245.347 46.4375 245.347 33.0469 c 0
 245.347 -48.5 226.129 -124.438 195.769 -194.125 c 0
 179.222 -232.078 135.003 -249.453 97.0508 -232.906 c 0
 59.0967 -216.359 41.7217 -172.141 58.2539 -134.188 c 0
 77.3574 -90.3555 89.6719 -46.6338 93.8037 -1.09766 c 1
56.5918 444 m 0
 56.5918 495.667 98.5244 537.6 150.191 537.6 c 0
 201.858 537.6 243.791 495.667 243.791 444 c 0
 243.791 392.333 201.858 350.4 150.191 350.4 c 0
 98.5244 350.4 56.5918 392.333 56.5918 444 c 0
EndSplineSet
Validated: 524321
EndChar

StartChar: less
Encoding: 26 60 18
Width: 461
VWidth: 1000
Flags: W
LayerCount: 2
Back
SplineSet
317 491.5 m 20
 239.6 426.7 174.8 378.1 97.4004 298.9 c 5
 167.6 243.1 243.2 187.3 338.6 122.5 c 1036
EndSplineSet
Fore
SplineSet
232.374 305.396 m 1
 281.062 268.761 334.219 230.764 396.179 188.677 c 0
 432.708 163.864 442.219 114.079 417.405 77.5488 c 0
 392.593 41.0195 342.808 31.5098 306.277 56.3223 c 0
 209.487 122.067 132.026 179.219 60.249 236.275 c 0
 41.6074 251.093 31.6768 270.126 30.1855 293.893 c 0
 28.6953 317.659 36.1699 337.784 52.8135 354.815 c 0
 134.616 438.519 203.011 489.83 278.273 552.841 c 0
 312.134 581.189 362.621 576.715 390.97 542.855 c 0
 419.317 508.995 414.844 458.507 380.983 430.159 c 0
 326.004 384.13 279.782 347.992 232.374 305.396 c 1
EndSplineSet
Validated: 524321
EndChar

StartChar: equal
Encoding: 27 61 19
Width: 587
VWidth: 1000
Flags: W
HStem: 128.073 159.799<50.9 528.847> 378.073 159.799<50.9005 528.847>
LayerCount: 2
Back
SplineSet
106.621 207.973 m 21
 230.03 201.79 352.399 199.836 474 201 c 1029
EndSplineSet
Fore
SplineSet
476.614 530.996 m 0
 520.773 531.419 556.953 495.924 557.377 451.766 c 0
 557.8 407.607 522.305 371.427 478.146 371.004 c 0
 351.66 369.792 231.607 371.781 105.999 378.073 c 0
 61.8945 380.282 27.8926 417.871 30.1025 461.976 c 0
 32.3115 506.08 69.9004 540.082 114.005 537.872 c 0
 235.863 531.768 353.404 529.818 476.614 530.996 c 0
476.614 280.996 m 0
 520.772 281.419 556.954 245.924 557.377 201.766 c 0
 557.8 157.608 522.305 121.426 478.146 121.004 c 0
 351.66 119.792 231.607 121.779 105.999 128.073 c 0
 61.8945 130.282 27.8926 167.871 30.1016 211.976 c 0
 32.3115 256.08 69.8994 290.082 114.005 287.872 c 0
 235.862 281.768 353.404 279.817 476.614 280.996 c 0
EndSplineSet
Validated: 524321
EndChar

StartChar: greater
Encoding: 28 62 20
Width: 461
VWidth: 1000
Flags: W
LayerCount: 2
Fore
SplineSet
228.852 308.598 m 1
 180.162 345.231 127.006 383.229 65.0459 425.315 c 0
 28.5166 450.128 19.0068 499.914 43.8193 536.443 c 0
 68.6318 572.974 118.418 582.482 154.947 557.67 c 0
 251.737 491.926 329.198 434.773 400.978 377.718 c 0
 419.617 362.9 429.549 343.866 431.039 320.1 c 0
 432.529 296.334 425.056 276.209 408.411 259.178 c 0
 326.608 175.474 258.214 124.162 182.951 61.1523 c 0
 149.091 32.8047 98.6035 37.2783 70.2559 71.1387 c 0
 41.9072 104.998 46.3818 155.486 80.2412 183.834 c 0
 135.223 229.863 181.442 266.001 228.852 308.598 c 1
EndSplineSet
Validated: 524321
EndChar

StartChar: bracketright
Encoding: 32 93 21
Width: 381
VWidth: 1000
Flags: W
HStem: -145.913 159.958<50.8463 191.033> 596.23 159.951<56.4234 185.198>
VStem: 30.0215 321.796<-122.437 -6.66863 623.801 729.733> 191.033 160.784<15.9502 597.921>
LayerCount: 2
Fore
SplineSet
191.033 15.9502 m 1xd0
 185.198 597.921 l 1
 117.58 596.23 l 2
 73.4336 595.127 36.709 630.061 35.6055 674.207 c 0
 34.502 718.354 69.4355 755.077 113.581 756.181 c 2
 262.381 759.9 l 2
 309.101 761.068 343.908 727.459 344.377 680.729 c 2
 351.817 -61.4121 l 2
 352.276 -107.233 319.471 -141.14 273.659 -142.193 c 2
 111.839 -145.913 l 2
 67.6904 -146.928 31.0361 -111.921 30.0215 -67.7725 c 0xe0
 29.0068 -23.624 64.0137 13.0303 108.162 14.0449 c 2
 191.033 15.9502 l 1xd0
EndSplineSet
Validated: 524321
EndChar

StartChar: grave
Encoding: 33 96 22
Width: 244
VWidth: 1000
Flags: W
VStem: 30.0068 159.986<421.036 619.613>
LayerCount: 2
Back
SplineSet
86.7646 716.277 m 0
 42.751 652.096 31.4707 560.528 30.0049 450.667 c 0
 29.6367 423.069 51.7354 400.373 79.333 400.005 c 0
 106.931 399.636 129.627 421.735 129.996 449.333 c 0
 131.363 551.809 147.296 627.729 169.235 659.723 c 0
 184.845 682.484 179.04 713.626 156.277 729.235 c 0
 133.516 744.845 102.374 739.04 86.7646 716.277 c 0
EndSplineSet
Fore
SplineSet
80.0234 703.267 m 0
 104.998 739.686 154.825 748.975 191.244 724 c 0
 231.205 696.596 235 648.5 210.153 609.791 c 0
 200.82 595.252 190.891 545.698 189.993 478.456 c 0
 189.404 434.3 153.09 398.94 108.934 399.53 c 0
 64.7773 400.119 29.418 436.434 30.0068 480.59 c 0
 31.1687 567.574 39.4142 644.053 80.0234 703.267 c 0
EndSplineSet
Validated: 524321
EndChar

StartChar: afii57685
Encoding: 55 1509 23
Width: 647
VWidth: 1000
Flags: W
VStem: 25.4844 159.844<407.344 587.615> 377.906 159.985<-303.385 -50.5287> 460.281 160<402.753 593.036>
LayerCount: 2
Back
SplineSet
72.4062 528.597 m 16
 77.7041 409.392 132.45 284.006 217.218 216.015 c 8
 371.095 92.5918 426 -50 424.898 -245.176 c 1032
284.326 183.344 m 16
 392.052 238.09 515.672 349.348 506.842 533.895 c 1032
EndSplineSet
Fore
SplineSet
309.841 270.615 m 1xc0
 389.293 318.656 460.281 396.898 460.281 515.328 c 0
 460.281 595 503 613.797 536.016 613.797 c 0
 586 613.797 620.281 585.041 620.281 515.328 c 0xa0
 620.281 340.633 521.901 222.974 421.665 152.875 c 1
 506.283 36.8634 537.891 -91 537.891 -245.625 c 0
 537.891 -289.782 501.609 -325.422 457.453 -325.172 c 0
 413.281 -324.922 377.906 -288.892 377.906 -244.719 c 0
 377.906 -64 336.171 44.5244 200.156 153.609 c 0
 92.6719 239.828 31.7344 384.375 25.4844 525.047 c 0
 23.5312 569.156 57.7344 606.562 101.859 608.516 c 0
 145.969 610.484 183.359 576.266 185.328 532.156 c 0
 190.065 425.583 239 323 309.841 270.615 c 1xc0
EndSplineSet
Validated: 524321
EndChar

StartChar: afii57686
Encoding: 56 1510 24
Width: 687
VWidth: 1000
Flags: W
HStem: -3.70312 160<55.6938 383.934> 7.04688 160.015<58.927 167.704 172.035 466.035>
LayerCount: 2
Back
SplineSet
397.745 344.054 m 20
 465.292 383.856 527.262 449.437 565.764 521.788 c 1036
112.886 530.133 m 20
 111.065 442.777 359.209 325.634 408.28 297.325 c 20
 467.583 263.113 502.507 248.284 550.926 186.346 c 4
 581.705 146.973 568.192 83.2314 524.125 81.2061 c 20
 469.613 78.7031 440.038 87.3418 385.472 87.0479 c 28
 298.608 86.5801 178.174 68.3857 110.183 80.3721 c 1036
EndSplineSet
Fore
SplineSet
192.718 535.442 m 1x40
 204.57 517.461 292.228 461.102 363.915 417.119 c 1
 414.854 449.131 465.175 503.064 495.141 559.375 c 0
 515.891 598.359 564.359 613.156 603.344 592.406 c 0
 642.328 571.672 657.125 523.188 636.391 484.203 c 0
 605.242 425.671 562.55 372.135 512.497 328.677 c 1
 562.308 296.277 647.594 223.887 647.594 137.203 c 0
 647.594 81.125 611.75 5.15625 527.797 1.29688 c 0
 476.984 -0.962571 426.492 7.04688 385.906 7.04688 c 0x40
 327.766 6.73438 243.109 -3.70312 168.859 -3.70312 c 0
 144.203 -3.70312 120.312 -2.64062 96.2969 1.59375 c 0
 52.7969 9.25 23.7344 50.7656 31.3906 94.2656 c 0
 39.0625 137.75 80.5781 166.828 124.078 159.156 c 0
 133.656 157.469 149.734 156.297 168.859 156.297 c 0x80
 229.574 156.297 313.757 167.062 388.203 167.062 c 0
 421.361 167.062 445.154 164.727 466.035 162.898 c 1
 439.904 190.563 419.972 198.224 368.297 228.031 c 0
 337.062 246.047 97.2969 333.359 41.8438 481.266 c 0
 18.507 544.257 45.8842 611.543 114.547 610.109 c 0
 156.355 609.237 190.025 576.398 192.718 535.442 c 1x40
EndSplineSet
Validated: 524321
EndChar

StartChar: afii57687
Encoding: 57 1511 25
Width: 700
VWidth: 1000
Flags: W
HStem: 448.391 160<50.7961 450.85>
VStem: 104.453 160<-344.592 326.349>
LayerCount: 2
Back
SplineSet
153.642 269.878 m 16
 161.589 98.5762 150.41 -74.4688 148.344 -294.624 c 1048
70.6396 518.452 m 0
 224.282 536.544 433.182 536.878 524.502 458.84 c 8
 596.083 397.671 573.867 283.708 528.034 214.249 c 24
 475.118 134.054 419.425 130.364 358.498 54.4258 c 1032
EndSplineSet
Fore
SplineSet
264.453 137.094 m 0
 264.453 4.07812 257.859 -133.375 256.344 -295.375 c 0
 255.922 -339.531 219.75 -375.031 175.594 -374.625 c 0
 131.438 -374.203 95.9375 -338.031 96.3438 -293.875 c 0
 97.9062 -128.375 104.453 9.54688 104.453 137.094 c 0
 104.453 181.047 103.688 223.812 101.734 266.172 c 0
 99.6875 310.281 133.828 347.75 177.938 349.797 c 0
 222.047 351.844 259.516 317.703 261.562 273.578 c 0
 263.656 228.172 264.453 182.906 264.453 137.094 c 0
261.016 608.391 m 0
 382.188 608.391 513.906 597.047 604.469 519.656 c 0
 659.016 473.062 678.578 407.281 678.578 350.078 c 0
 678.578 282.422 655.656 219.969 622.812 170.188 c 0
 552.859 64.1875 490.953 56.7812 448.891 4.35938 c 0
 421.266 -30.0781 370.875 -35.6094 336.438 -7.96875 c 0
 301.984 19.6562 296.469 70.0469 324.094 104.484 c 0
 403.844 203.875 453.781 204.547 489.266 258.312 c 0
 513.375 294.861 536.031 367.693 500.531 398.016 c 4
 467.328 426.391 368.531 448.391 261.016 448.391 c 0
 208.828 448.391 155.531 444.594 108 439 c 0
 64.1406 433.844 24.3594 465.234 19.1875 509.094 c 0
 14.0312 552.953 45.4219 592.734 89.2812 597.906 c 0
 142.219 604.141 201.203 608.391 261.016 608.391 c 0
EndSplineSet
Validated: 524321
EndChar

StartChar: afii57688
Encoding: 58 1512 26
Width: 621
VWidth: 1000
Flags: W
HStem: 449.254 160<156.267 368.886>
VStem: 411.749 157.937<13.0054 288.27> 436.438 160<63.2551 386.648>
LayerCount: 2
Back
SplineSet
97.1807 488.344 m 20
 144.839 513.496 204.538 529.254 269.063 529.254 c 4
 394.261 529.254 507.438 441.101 507.438 314.698 c 4
 507.438 228.86 493.297 144.031 481.718 72.627 c 1036
EndSplineSet
Fore
SplineSet
278.062 609.254 m 0xa0
 439.083 609.254 596.438 492.843 596.438 314.698 c 0xa0
 596.438 220.191 581.241 131.075 569.686 59.8213 c 0
 562.617 16.2305 521.503 -13.4102 477.912 -6.3418 c 0
 434.321 0.727539 404.681 41.8418 411.749 85.4326 c 0xc0
 423.355 156.999 436.438 237.542 436.438 314.698 c 0
 436.438 389.089 367.348 449.254 278.062 449.254 c 0
 226.571 449.254 179.081 436.36 143.521 417.593 c 0
 104.466 396.981 56.041 411.949 35.4297 451.004 c 0
 14.8174 490.058 29.7861 538.483 68.8408 559.095 c 0
 128.565 590.615 200.471 609.254 278.062 609.254 c 0xa0
EndSplineSet
Validated: 524321
EndChar

StartChar: afii57689
Encoding: 59 1513 27
Width: 859
VWidth: 1000
Flags: W
HStem: -6.4375 160.023<431.179 593.33>
VStem: 40.8125 160<247.521 572.334> 370.984 160<289.694 505.259> 666.75 160<250.583 562.127>
LayerCount: 2
Back
SplineSet
421.164 530.38 m 16
 442.356 448.637 456.249 382.113 449.075 319.334 c 0
 438.118 223.472 338.078 183.942 237.543 168 c 1032
700.358 174.805 m 16
 735.677 271.51 759.128 389.728 739.776 510.672 c 1032
116 518.884 m 16
 128.715 434.509 108.424 317.168 138.665 228.183 c 16
 179.575 107.799 298.136 66.126 481.594 74.6191 c 0
 577.409 79.0557 640.779 107.222 695.432 147.706 c 1032
EndSplineSet
Fore
SplineSet
431.179 153.585 m 1
 508.376 153.023 576 162 622.94 194.966 c 1
 647 261 666.75 339.987 666.75 421.359 c 0
 666.75 446.844 664.875 472.469 660.781 498.031 c 0
 653.797 541.641 683.531 582.688 727.141 589.672 c 0
 770.75 596.641 811.797 566.922 818.766 523.312 c 0
 824.297 488.812 826.75 454.688 826.75 421.359 c 0
 826.75 320.316 804.442 226.613 775.422 147.146 c 1
 775.228 122.87 764.04 98.9705 743.047 83.4219 c 0
 668.662 28.3042 583 -6.4375 437.422 -6.4375 c 0
 260.984 -6.4375 115.609 47.4062 62.9219 202.438 c 0
 35.6981 282.522 40.8125 344.945 40.8125 426 c 0
 40.8125 458.141 39.9688 486.547 36.8906 506.969 c 0
 30.3125 550.625 60.4062 591.406 104.078 597.984 c 0
 147.75 604.578 188.531 574.469 195.109 530.812 c 0
 200.484 495.094 200.812 460.078 200.812 426 c 0
 200.812 358.027 200.022 288.909 217.541 245.466 c 1
 262 252 312.518 266.893 338.875 284.312 c 0
 368.163 303.641 370.984 317.197 370.984 353.859 c 0
 370.984 393.969 360.703 444.828 343.719 510.297 c 0
 332.641 553.047 358.344 596.734 401.094 607.812 c 0
 443.828 618.906 487.516 593.203 498.609 550.453 c 0
 516.328 482.078 530.984 419.453 530.984 353.859 c 0
 530.984 255.682 489.709 193.926 431.179 153.585 c 1
EndSplineSet
Validated: 524321
EndChar

StartChar: afii57690
Encoding: 60 1514 28
Width: 812
VWidth: 1000
Flags: W
HStem: 449.469 160<387.539 564.54>
VStem: 184.89 161.86<157.811 380.627> 627.703 160<137.927 387.427>
LayerCount: 2
Back
SplineSet
262.269 454.496 m 28
 264.837 355.566 273.742 265.984 273.742 170.153 c 4
 273.742 122.843 250.352 71.666 212.725 71.666 c 4
 165.166 71.666 137.248 91.6328 100.68 118.392 c 1036
316.401 458.536 m 20
 350.938 503.869 414.532 529.461 474.063 529.461 c 4
 596.728 529.461 714.699 452.825 714.699 307.556 c 4
 714.699 231.727 693.637 163.285 681.592 91.7285 c 1052
EndSplineSet
Fore
SplineSet
271.146 532.918 m 1
 343.551 602.684 390.36 609.469 467.062 609.469 c 0
 625.25 609.469 787.703 504.422 787.703 307.562 c 0
 787.703 216.672 764.328 142.859 753.484 78.4531 c 0
 746.156 34.9062 704.859 5.51562 661.312 12.8438 c 0
 617.766 20.1719 588.375 61.4531 595.703 105.016 c 0
 608.953 183.781 627.703 246.859 627.703 307.562 c 0
 627.703 398.766 556.375 449.469 467.062 449.469 c 0
 428.875 449.469 401.078 440.125 373.031 410.062 c 1
 363.718 397.828 351.559 389.031 338.181 383.891 c 1
 341.763 314.252 346.75 245.151 346.75 170.156 c 0
 346.75 82.4457 296.399 -8.32812 205.719 -8.32812 c 0
 137.495 -8.32812 86.1478 24.8033 46.4375 53.8281 c 0
 10.7969 79.9062 3.04688 130 29.125 165.641 c 0
 55.2031 201.266 105.281 209.031 140.922 182.953 c 0
 161.808 167.667 169.06 161.42 184.89 154.898 c 1
 190 235 178.002 347.923 175.297 452.422 c 0
 174.038 501.117 215 541 271.146 532.918 c 1
EndSplineSet
Validated: 524321
EndChar

StartChar: .notdef
Encoding: 61 -1 29
Width: 540
VWidth: 1000
Flags: W
VStem: 200 140<-400 935>
LayerCount: 2
Fore
SplineSet
340 -400 m 29
 200 -400 l 25
 200 935 l 25
 340 935 l 29
 340 -400 l 29
EndSplineSet
Validated: 2097153
EndChar

StartChar: quotesingle
Encoding: 5 39 31
Width: 256
VWidth: 1000
Flags: W
VStem: 56.0039 159.986<518.165 716.737>
LayerCount: 2
Back
SplineSet
136 658.25 m 21
 134.935 578.387 124.648 515.693 100 479.75 c 1037
EndSplineSet
Fore
SplineSet
165.974 434.506 m 0
 140.999 398.087 91.1719 388.798 54.7529 413.773 c 0
 18.333 438.748 9.56401 488.224 34.0195 524.994 c 0
 44 540 54.9615 581.131 56.0039 659.317 c 0
 56.5928 703.473 92.9082 738.832 137.063 738.243 c 0
 181.22 737.654 216.579 701.339 215.99 657.183 c 0
 214.828 570.199 206.578 493.732 165.974 434.506 c 0
EndSplineSet
Validated: 524321
EndChar

StartChar: comma
Encoding: 10 44 32
Width: 278
VWidth: 1000
Flags: W
VStem: 56.5977 188.75<8.56916 136.524>
LayerCount: 2
Back
SplineSet
142 68 m 17
 148.389 -15.0527 131.56 -91.5918 100 -164 c 1033
EndSplineSet
Fore
SplineSet
93.8037 -1.09766 m 1
 71.2051 15.9941 56.5977 43.1006 56.5977 73.5938 c 0
 56.5977 125.266 98.5195 167.203 150.191 167.203 c 0
 201.863 167.203 243.785 125.266 243.785 73.5938 c 4
 244.848 59.9531 245.348 46.4375 245.348 33.0469 c 0
 245.348 -48.5 226.129 -124.438 195.77 -194.125 c 0
 179.223 -232.078 135.004 -249.453 97.0508 -232.906 c 0
 59.0977 -216.359 41.7227 -172.141 58.2539 -134.188 c 0
 77.3574 -90.3555 89.6719 -46.6338 93.8037 -1.09766 c 1
EndSplineSet
Validated: 524321
EndChar

StartChar: hyphen
Encoding: 11 45 33
Width: 502
VWidth: 1000
Flags: W
HStem: 223.803 159.799<50.9 445.523>
LayerCount: 2
Back
SplineSet
95.7002 303.702 m 21
 190.631 298.946 284.761 297.443 378.3 298.339 c 1029
EndSplineSet
Fore
SplineSet
391.835 378.335 m 0
 435.993 378.758 472.175 343.263 472.598 299.104 c 0
 473.021 254.947 437.525 218.766 393.367 218.343 c 0
 295.696 217.404 203.041 218.941 105.999 223.803 c 0
 61.8945 226.012 27.8926 263.601 30.1016 307.705 c 0
 32.3115 351.81 69.8994 385.812 114.005 383.602 c 0
 207.322 378.927 297.431 377.435 391.835 378.335 c 0
EndSplineSet
Validated: 524321
EndChar

StartChar: period
Encoding: 12 46 34
Width: 276
VWidth: 1000
Flags: W
HStem: -20 187.199<85.0318 214.168>
VStem: 56 187.199<9.03174 138.168>
LayerCount: 2
Back
SplineSet
56 52 m 4
 56 91.7441 88.2559 124 128 124 c 4
 167.744 124 200 91.7441 200 52 c 4
 200 12.2559 167.744 -20 128 -20 c 4
 88.2559 -20 56 12.2559 56 52 c 4
EndSplineSet
Fore
SplineSet
56 73.5996 m 0
 56 125.267 97.9326 167.199 149.6 167.199 c 0
 201.267 167.199 243.199 125.267 243.199 73.5996 c 0
 243.199 21.9326 201.267 -20 149.6 -20 c 0
 97.9326 -20 56 21.9326 56 73.5996 c 0
EndSplineSet
Validated: 524289
EndChar

StartChar: slash
Encoding: 13 47 35
Width: 484
VWidth: 1000
Flags: W
LayerCount: 2
Back
SplineSet
377.52 643.175 m 4
 339.139 583.95 321.353 525.851 285.721 450.708 c 28
 202.452 275.105 156.102 175.755 73.2305 -0.0341797 c 1052
EndSplineSet
Fore
SplineSet
374.825 416.513 m 2
 162.374 -34.1475 l 2
 143.543 -74.0908 95.8418 -91.2266 55.8984 -72.3965 c 0
 15.9541 -53.5654 -1.18164 -5.86523 17.6494 34.0791 c 2
 230.178 484.903 l 2
 263.069 554.268 281.504 616.223 327.165 686.682 c 0
 351.181 723.741 400.749 734.326 437.808 710.31 c 0
 474.866 686.294 485.452 636.726 461.436 599.668 c 0
 430.31 551.639 413.175 497.387 374.825 416.513 c 2
EndSplineSet
Validated: 524321
EndChar

StartChar: zero
Encoding: 14 48 36
Width: 639
VWidth: 1000
Flags: W
HStem: -14.125 149.592<212.792 358.983> 499.97 149.592<264.895 396.766>
VStem: 31.5156 147.463<169.583 386.282> 462.538 147.462<233.079 428.339>
LayerCount: 2
Back
SplineSet
466.934 148.838 m 20
 409.689 102.8 341.111 55.873 258.656 55.873 c 4
 154.923 55.873 97.1152 148.69 97.1152 272.863 c 4
 97.1152 379.482 140.396 446.282 188.482 507.191 c 1036
156.706 463.941 m 20
 200.816 551.185 219.398 579.568 326.453 579.568 c 4
 441.278 579.568 535.596 463.012 535.596 333.067 c 4
 535.596 238.001 499.987 187.906 446.028 112.649 c 1036
EndSplineSet
Fore
SplineSet
444.687 42.8857 m 1
 395.158 11.7188 335.02 -14.125 263.062 -14.125 c 0
 107.134 -14.125 31.5156 122 31.5156 272.859 c 0
 31.5156 367.779 62.7139 440.14 99.5645 497.357 c 1
 145.447 588.02 183.794 649.562 330.859 649.562 c 0
 492.453 649.562 610 493.547 610 333.062 c 0
 610 217.828 559.922 145.219 507.328 71.8594 c 0
 492.478 51.1445 468.382 40.959 444.687 42.8857 c 1
265.169 488.667 m 1
 263.62 477.289 259.103 466.166 251.475 456.508 c 0
 214.062 409.109 178.979 358.825 178.979 275.102 c 0
 178.979 201.189 203.094 135.467 265.947 135.467 c 0
 325.738 135.467 462.538 184.036 462.538 332.295 c 0
 462.538 428.542 393.678 499.97 330.354 499.97 c 0
 301.954 499.97 276.653 500.317 265.169 488.667 c 1
EndSplineSet
Validated: 524321
EndChar

StartChar: colon
Encoding: 24 58 37
Width: 276
VWidth: 1000
Flags: W
HStem: -20 187.199<85.0318 214.168> 350.4 187.2<85.0318 214.168>
VStem: 56 187.199<9.03174 138.168 379.432 508.568>
LayerCount: 2
Back
SplineSet
56 444 m 0
 56 483.744 88.2559 516 128 516 c 0
 167.744 516 200 483.744 200 444 c 0
 200 404.256 167.744 372 128 372 c 0
 88.2559 372 56 404.256 56 444 c 0
56 52 m 4
 56 91.7441 88.2559 124 128 124 c 4
 167.744 124 200 91.7441 200 52 c 4
 200 12.2559 167.744 -20 128 -20 c 4
 88.2559 -20 56 12.2559 56 52 c 4
EndSplineSet
Fore
SplineSet
56 444 m 0
 56 495.667 97.9326 537.6 149.6 537.6 c 0
 201.267 537.6 243.199 495.667 243.199 444 c 0
 243.199 392.333 201.267 350.4 149.6 350.4 c 0
 97.9326 350.4 56 392.333 56 444 c 0
56 73.5996 m 0
 56 125.267 97.9326 167.199 149.6 167.199 c 0
 201.267 167.199 243.199 125.267 243.199 73.5996 c 0
 243.199 21.9326 201.267 -20 149.6 -20 c 0
 97.9326 -20 56 21.9326 56 73.5996 c 0
EndSplineSet
Validated: 524289
EndChar

StartChar: question
Encoding: 29 63 38
Width: 553
VWidth: 1000
Flags: W
HStem: -20 187.199<202.518 331.655>
VStem: 38.877 148.265<472.881 561.405> 173.486 187.201<9.03174 138.168>
LayerCount: 2
Back
SplineSet
186 52 m 0
 186 91.7441 218.256 124 258 124 c 0
 297.744 124 330 91.7441 330 52 c 0
 330 12.2559 297.744 -20 258 -20 c 0
 218.256 -20 186 12.2559 186 52 c 0
101.123 661.007 m 0
 68.1543 632.339 40.6621 585.478 37.9834 526.548 c 0
 36.7295 498.976 58.0898 475.582 85.6611 474.329 c 0
 113.233 473.076 136.627 494.435 137.88 522.006 c 0
 139.198 550.991 153.594 574.115 166.741 585.547 c 0
 194.519 609.701 233.462 629.383 278.726 628.292 c 0
 323.369 627.215 345.908 614.446 380.356 583.228 c 0
 408.568 557.661 417.691 542.652 418.974 511.238 c 0
 419.65 494.675 417.117 489.672 408.573 479.013 c 0
 405.186 474.788 400.507 469.891 394.386 464.354 c 0
 356.189 429.794 331.906 416.253 295.411 372.155 c 0
 264.427 334.715 242.537 303.81 222.655 255.209 c 0
 212.204 229.664 224.455 200.45 250 190 c 0
 275.545 179.549 304.759 191.8 315.209 217.345 c 0
 331.351 256.802 342.502 272.21 372.452 308.399 c 0
 399.634 341.245 415.661 348.748 461.478 390.2 c 0
 470.387 398.26 478.863 406.816 486.601 416.469 c 0
 507.439 442.467 520.438 477.439 518.89 515.316 c 0
 516.216 580.839 483.767 624.466 447.508 657.326 c 0
 403.721 697.008 350.901 726.58 281.137 728.262 c 0
 204.778 730.104 142.742 697.197 101.123 661.007 c 0
EndSplineSet
Fore
SplineSet
173.486 73.5996 m 0xa0
 173.486 125.267 215.42 167.199 267.087 167.199 c 0
 318.754 167.199 360.687 125.267 360.687 73.5996 c 0
 360.687 21.9326 318.754 -20 267.087 -20 c 0
 215.42 -20 173.486 21.9326 173.486 73.5996 c 0xa0
270.644 728.736 m 0
 411 728.736 531.145 634.808 531.145 527.129 c 0
 531.145 463.743 504.719 424.949 468.836 396.33 c 0
 412 351 371.438 327.761 344.04 268.23 c 0
 326.732 230.622 282.162 214.147 244.554 231.455 c 0
 206.944 248.764 190.471 293.334 207.777 330.942 c 0
 240.278 401.557 301 464 359 496 c 0
 372.705 503.561 377.962 516.89 376 525 c 0
 368.5 556 318 582.5 270.644 578.736 c 0
 241.769 576.441 194.758 568.253 187.142 518.612 c 0
 180.862 477.691 142.557 449.575 101.636 455.854 c 0
 60.7148 462.131 32.5986 500.438 38.877 541.359 c 0xc0
 55.5788 650.231 155.138 728.736 270.644 728.736 c 0
EndSplineSet
Validated: 524321
EndChar

StartChar: bracketleft
Encoding: 30 91 39
Width: 381
VWidth: 1000
Flags: W
HStem: -142.185 158.259<196.623 325.398> 598.046 161.863<190.789 328.323>
VStem: 37.4453 308.771<-121.367 -2.94793 616.946 741.601>
LayerCount: 2
Back
SplineSet
271.91 679.93 m 28
 208.8 678.479 173.2 677.661 110.09 676.21 c 13
 112.991 386.775 114.628 223.505 117.53 -65.9297 c 13
 175.562 -64.4795 208.298 -63.6602 266.33 -62.21 c 1052
EndSplineSet
Fore
SplineSet
190.789 598.046 m 1
 196.623 16.0742 l 1
 264.242 17.7646 l 2
 308.388 18.8682 345.113 -16.0645 346.216 -60.2109 c 0
 347.32 -104.357 312.387 -141.081 268.24 -142.185 c 2
 119.44 -145.905 l 2
 72.7207 -147.073 37.9141 -113.463 37.4453 -66.7314 c 2
 30.0049 675.408 l 2
 29.5449 721.229 62.3506 755.136 108.162 756.189 c 2
 269.982 759.909 l 2
 314.131 760.923 350.785 725.917 351.8 681.768 c 0
 352.814 637.62 317.808 600.966 273.66 599.951 c 2
 190.789 598.046 l 1
EndSplineSet
Validated: 524321
EndChar

StartChar: backslash
Encoding: 31 92 40
Width: 484
VWidth: 1000
Flags: W
LayerCount: 2
Back
SplineSet
304 -138 m 25
 -10 726 l 29
 103 700 l 29
 401 -152 l 25
 304 -138 l 25
EndSplineSet
Fore
SplineSet
109.475 416.513 m 2
 71.124 497.387 53.9893 551.639 22.8633 599.668 c 0
 -1.15234 636.726 9.43359 686.294 46.4912 710.31 c 0
 83.5508 734.326 133.119 723.741 157.135 686.682 c 0
 202.797 616.223 221.229 554.268 254.122 484.903 c 2
 466.65 34.0791 l 2
 485.48 -5.86523 468.345 -53.5654 428.401 -72.3965 c 0
 388.458 -91.2266 340.758 -74.0908 321.927 -34.1475 c 2
 109.475 416.513 l 2
EndSplineSet
Validated: 524321
EndChar

StartChar: afii57664
Encoding: 34 1488 41
Width: 678
VWidth: 1000
Flags: W
VStem: 477.812 159.797<418.903 585.867>
LayerCount: 2
Back
SplineSet
109.27 73.2461 m 20
 144.589 183.444 184.324 272.627 243.055 372.562 c 1036
553.708 526.754 m 20
 547.237 397.13 476.364 286.43 422.19 191.158 c 1052
106.62 511.037 m 28
 145.68 471.181 166.916 447.899 206.773 408.842 c 28
 339.187 279.087 432.447 193.157 552.952 83.0713 c 1036
EndSplineSet
Fore
SplineSet
532.788 215.653 m 1
 611.781 141.328 l 2
 643.938 111.062 645.469 60.4062 615.219 28.25 c 0
 584.953 -3.90625 534.281 -5.45312 502.125 24.8125 c 2
 408.245 113.173 l 1
 379.174 119.867 357.138 142.577 349.482 168.48 c 1
 268.375 244.819 l 1
 237.156 182.595 212.665 121.261 189.453 48.8281 c 0
 175.969 6.78125 130.906 -16.4219 88.8594 -2.9375 c 0
 46.7969 10.5469 23.6094 55.6094 37.0938 97.6562 c 0
 67.4668 192.424 102.002 274.61 147.597 359.062 c 1
 53.4844 455.047 l 2
 22.5781 486.578 23.0938 537.266 54.625 568.172 c 0
 86.1719 599.078 136.844 598.578 167.75 567.031 c 0
 246.137 484.895 328.61 406.845 411.789 329.501 c 1
 446.624 395.794 474.402 462.551 477.812 530.75 c 0
 480.016 574.844 517.594 608.859 561.703 606.656 c 0
 605.797 604.453 639.812 566.875 637.609 522.766 c 0
 631.476 399.958 579.95 298.173 532.788 215.653 c 1
EndSplineSet
Validated: 524321
EndChar

StartChar: afii57665
Encoding: 35 1489 42
Width: 693
VWidth: 1000
Flags: W
HStem: -6.15625 160<45.184 399.657> 445.828 160<252.313 457.042>
VStem: 476.203 160<252.154 425.524>
LayerCount: 2
Back
SplineSet
112.68 76.4893 m 20
 195.629 68.5898 262.216 80.1211 339.42 88.4229 c 20
 425.974 97.7295 521.508 112.939 605.939 97.9697 c 1036
145.297 446.436 m 20
 213.29 496.185 301.99 525.826 407.602 525.826 c 4
 492.369 525.826 567.203 469.314 567.203 357.089 c 4
 567.203 268.348 525.343 192.563 485.012 139.34 c 1036
EndSplineSet
Fore
SplineSet
592.944 179.266 m 1
 646 177 682.46 133.345 673.719 84 c 0
 666 40.5156 624.453 11.4844 580.969 19.2031 c 0
 561.281 22.6875 539.312 24.2656 515.734 24.2656 c 0
 400.118 24.2656 267 -6.15625 157.953 -6.15625 c 0
 137.562 -6.15625 116.312 -5.26562 94.0938 -3.15625 c 0
 50.1406 1.03125 17.8594 40.1094 22.0469 84.0781 c 0
 26.2188 128.031 65.2969 160.312 109.266 156.125 c 0
 126.141 154.516 142.172 153.844 157.953 153.844 c 0
 232 153.844 318 170 403.673 177.472 c 1
 441 228 476.203 285.782 476.203 357.094 c 0
 476.203 418.437 442.915 445.828 396.594 445.828 c 0
 305.938 445.828 234.844 420.875 181.531 381.875 c 0
 145.891 355.797 95.8115 363.562 69.7344 399.203 c 0
 43.6562 434.828 51.4219 484.922 87.0625 511 c 0
 169.797 571.531 276.094 605.828 396.594 605.828 c 0
 529 605.828 636.203 508.537 636.203 357.094 c 0
 636.203 289.002 617.64 229.25 592.944 179.266 c 1
EndSplineSet
Validated: 524321
EndChar

StartChar: afii57666
Encoding: 36 1490 43
Width: 529
VWidth: 1000
Flags: W
HStem: 444.731 160.691<162.775 280.69>
LayerCount: 2
Back
SplineSet
368.136 266.632 m 20
 368.417 152.318 162.063 91.8135 85.8574 70.8184 c 1036
187.579 502.287 m 20
 212.902 517.059 234.201 525.416 270.404 525.416 c 4
 311.674 525.416 344.046 502.967 353.724 464.989 c 20
 384.6 343.871 409.865 217.357 430.864 84.3799 c 1052
EndSplineSet
Fore
SplineSet
276.317 444.731 m 1
 252.5 447 245.32 443.356 227.891 433.188 c 0
 189.75 410.938 140.734 423.828 118.469 461.984 c 0
 96.2188 500.125 109.125 549.141 147.266 571.391 c 0
 178.484 589.594 222.047 605.422 270.406 605.422 c 0
 343.766 605.422 413 559 431.25 484.75 c 0
 461.781 360.562 488.562 231.875 509.891 96.8594 c 0
 516.766 53.2344 486.969 12.25 443.344 5.35938 c 0
 399.719 -1.53125 358.734 28.2812 351.844 71.9062 c 0
 347.953 96.2188 l 1
 264.453 34.6094 158.203 7.76562 107.109 -6.3125 c 0
 64.5312 -18.0312 20.4531 7 8.73438 49.5625 c 0
 -3 92.1406 22.0312 136.219 64.6094 147.938 c 0
 116.766 162.312 230.109 200.828 271.734 240.641 c 0
 300.977 268.604 280.672 286.051 306.281 317.312 c 1
 296.891 360.703 286.989 402.825 276.317 444.731 c 1
EndSplineSet
Validated: 524321
EndChar

StartChar: afii57667
Encoding: 37 1491 44
Width: 686
VWidth: 1000
Flags: W
HStem: 444.172 160<127.343 387.996> 446.821 163.46<548.055 633.59>
VStem: 377.969 160<33.8416 439.155> 393.641 159.859<14.5087 274.202>
LayerCount: 2
Back
SplineSet
502.876 463.89 m 20
 489.743 406.981 486.965 343.501 486.965 279.925 c 4
 486.965 163.369 499.918 137.762 502.567 72.8086 c 1036
133.623 494.812 m 20
 180.309 515.409 220.89 524.174 298.594 524.174 c 4
 400.592 524.174 477.843 511.271 608.377 531.191 c 1036
EndSplineSet
Fore
SplineSet
387.996 440.744 m 1x60
 346.817 441.913 309.309 444.172 269.594 444.172 c 0
 196.922 444.172 174.672 438.281 136.922 421.625 c 0
 96.5156 403.797 49.25 422.109 31.4375 462.516 c 0
 13.6094 502.922 31.9219 550.172 72.3281 568 c 0
 128.188 592.656 187.109 604.172 269.594 604.172 c 0xa0
 331.156 604.172 380.969 600.062 432.656 600.062 c 0
 472.703 600.062 514.672 602.25 567.312 610.281 c 0
 610.969 616.938 651.797 586.922 658.469 543.266 c 0
 665.125 499.609 635.094 458.766 591.453 452.109 c 0
 577.855 450.034 564.73 448.285 552.034 446.821 c 1
 541.371 399.455 537.969 341.848 537.969 279.922 c 4x60
 537.969 170.188 550.297 154.609 553.5 76.0625 c 0
 555.297 31.9531 520.953 -5.32812 476.828 -7.125 c 0
 432.703 -8.92188 395.438 25.4219 393.641 69.5469 c 0x50
 391.531 120.922 377.969 156.531 377.969 279.922 c 0
 377.969 332.44 379.526 386.843 387.996 440.744 c 1x60
EndSplineSet
Validated: 524321
EndChar

StartChar: afii57668
Encoding: 38 1492 45
Width: 688
VWidth: 1000
Flags: W
HStem: 449.287 160<208.521 461.8>
VStem: 116.78 159.819<13.5895 298.289> 465.903 152.079<4.06336 133.547> 502.188 160<125.778 406.384>
LayerCount: 2
Back
SplineSet
199.689 72.7764 m 20
 202.683 135.622 191.98 188.99 200.573 240.547 c 1052
111.39 476.308 m 20
 198.143 504.845 283.575 529.287 390.418 529.287 c 12
 535.652 529.287 585.188 423.327 585.188 292.644 c 4
 585.188 208.665 566.306 131.058 544.942 65.7129 c 1036
EndSplineSet
Fore
SplineSet
118.662 253.699 m 0xc0
 125.922 297.258 167.166 326.718 210.725 319.458 c 0
 254.284 312.198 283.745 270.954 276.485 227.395 c 0
 268.921 182.018 279.261 124.956 276.599 68.9707 c 0
 274.498 24.8604 236.994 -9.23438 192.884 -7.13281 c 0
 148.774 -5.03223 114.679 32.4727 116.78 76.582 c 0
 119.607 135.239 108.864 194.92 118.662 253.699 c 0xc0
387.418 609.287 m 0
 574.569 609.287 662.188 474.302 662.188 292.644 c 0xd0
 662.188 196.636 640.821 110.713 617.982 40.8535 c 0
 604.259 -1.12012 559.056 -24.0488 517.083 -10.3262 c 0
 475.109 3.39648 452.18 48.5986 465.903 90.5723 c 0xe0
 485.795 151.417 502.188 220.706 502.188 292.644 c 0xd0
 502.188 386.049 477 449.287 387.418 449.287 c 0
 293.055 449.287 218.497 428.31 133.388 400.314 c 0
 91.4385 386.515 46.1943 409.361 32.3955 451.31 c 0
 18.5967 493.258 41.4434 538.503 83.3916 552.302 c 0
 171.816 581.389 268.11 609.287 387.418 609.287 c 0
EndSplineSet
Validated: 524321
EndChar

StartChar: afii57669
Encoding: 39 1493 46
Width: 275
VWidth: 1000
Flags: W
HStem: -13 21G<115.575 159.731>
VStem: 60.5127 160<10.4414 587.844>
LayerCount: 2
Back
SplineSet
126.176 534.995 m 20
 136.771 403.428 128.824 249.786 128.824 67.0049 c 1036
EndSplineSet
Fore
SplineSet
220.513 366.078 m 0
 220.513 274.172 217.652 175.297 217.652 67 c 0
 217.652 22.8438 181.809 -13 137.652 -13 c 0
 93.4971 -13 57.6533 22.8438 57.6533 67 c 0
 57.6533 178.062 60.5127 277.547 60.5127 366.078 c 0
 60.5127 425.094 59.2314 479.219 55.2627 528.578 c 0
 51.7158 572.594 84.5596 611.188 128.575 614.734 c 0
 172.591 618.281 211.2 585.438 214.747 541.422 c 0
 219.247 485.531 220.513 427.344 220.513 366.078 c 0
EndSplineSet
Validated: 524321
EndChar

StartChar: afii57670
Encoding: 40 1494 47
Width: 425
VWidth: 1000
Flags: W
HStem: 441.5 160.547<42.8707 138.465 298.234 376.311>
VStem: 20.0938 378.344<463.932 579.519> 128.844 160<51.9039 440.063> 138.703 160<14.8918 319.467>
LayerCount: 2
Back
SplineSet
234.592 471.717 m 20
 181.039 424.277 213.71 195.581 213.71 74.1016 c 1036
94.5049 520.37 m 20
 169.45 529.51 219.891 522.048 313.444 522.048 c 1036
EndSplineSet
Fore
SplineSet
307.5 441.5 m 1xc0
 293.5 410 288.844 374 288.844 323.656 c 0xa0
 288.844 245.562 298.703 147.734 298.703 74.0938 c 0
 298.703 29.9375 262.875 -5.90625 218.703 -5.90625 c 0
 174.547 -5.89062 138.703 29.9375 138.703 74.0938 c 0x90
 138.703 133.984 128.844 234.453 128.844 323.656 c 0xa0
 128.844 365.453 128.938 405.216 138.465 443.719 c 1
 86 432 27.4298 450.498 20.0938 510.688 c 0
 14.75 554.516 45.9844 594.438 89.8281 599.781 c 0
 121.891 603.688 150.625 604.922 178 604.922 c 0
 222.922 604.922 263.156 602.047 318.438 602.047 c 0
 362.609 602.047 398.438 566.203 398.438 522.047 c 0
 398.438 476.969 362 439 307.5 441.5 c 1xc0
EndSplineSet
Validated: 524321
EndChar

StartChar: afii57671
Encoding: 41 1495 48
Width: 719
VWidth: 1000
Flags: W
HStem: 450.859 160<281.203 469.312>
VStem: 39.2344 160<14.6743 386.808> 536.219 160<112.276 383.489>
LayerCount: 2
Back
SplineSet
129.513 440.204 m 20
 115.016 320.147 112.914 201.943 117.201 71.7334 c 1036
119.509 403.462 m 20
 188.366 468.278 261.093 530.853 384.392 530.853 c 4
 531.853 530.853 612.215 406.111 612.215 292.204 c 4
 612.215 213.57 600.103 132.796 576.551 71.7334 c 1036
EndSplineSet
Fore
SplineSet
136.014 520.168 m 1
 198.619 568.392 279.219 610.859 388.391 610.859 c 0
 588.312 610.859 696.219 441.344 696.219 292.203 c 0
 696.219 205.344 683.828 117.172 655.188 42.9375 c 0
 639.297 1.75 592.969 -18.7969 551.766 -2.90625 c 0
 510.562 12.9844 490.016 59.3281 505.906 100.516 c 0
 524.406 148.5 536.219 221.891 536.219 292.203 c 0
 536.219 370.125 484.328 450.859 388.391 450.859 c 0
 310.588 450.859 262.099 420.537 206.794 371.365 c 1
 201.475 310.156 199.234 248.505 199.234 184.078 c 0
 199.234 148.469 199.922 112.016 201.156 74.3594 c 0
 202.609 30.2344 167.969 -6.76562 123.828 -8.21875 c 0
 79.7031 -9.67188 42.7031 24.9688 41.25 69.0938 c 0
 39.9531 108.188 39.2344 146.406 39.2344 184.078 c 0
 39.2344 250.5 41.499 315.284 46.9648 380.15 c 1
 40.8105 400.438 42.9121 422.634 53.1113 441.512 c 1
 59.1745 492.641 85 515 136.014 520.168 c 1
EndSplineSet
Validated: 524321
EndChar

StartChar: afii57672
Encoding: 42 1496 49
Width: 678
VWidth: 1000
Flags: W
HStem: -6.26562 160<269.858 447.983> 450.281 160<406.086 481.9>
VStem: 38.0469 160<228.665 548.112> 244.391 160<354.089 446.159> 485.359 160<194.155 440.7>
LayerCount: 2
Back
SplineSet
523.541 501.028 m 20
 488.61 520.524 463.101 530.273 424.032 530.273 c 4
 356.84 530.273 316.39 490.079 316.39 413.293 c 1036
547.912 486.405 m 20
 557.172 422.91 557.365 397.737 557.365 340.852 c 20
 557.365 142.177 491.14 73.7275 363.507 73.7275 c 12
 229.553 73.7275 110.05 163.369 110.05 305.532 c 4
 110.05 365.669 112.487 434.415 116.55 496.154 c 1036
EndSplineSet
Fore
SplineSet
584.276 561.21 m 1
 610.521 551.224 630.739 527.691 635.078 497.953 c 0
 644.719 431.812 645.359 397.094 645.359 340.844 c 0
 645.359 125 567 -6.26562 371.5 -6.26562 c 0
 200.891 -6.26562 38.0469 112.625 38.0469 305.531 c 0
 38.0469 367.812 40.5469 437.875 44.7188 501.406 c 0
 47.625 545.469 85.7344 578.875 129.797 575.984 c 0
 173.875 573.078 207.281 534.969 204.375 490.906 c 0
 200.438 430.953 198.047 363.531 198.047 305.531 c 0
 198.047 215.562 273.016 153.734 371.5 153.734 c 0
 480.871 153.734 485.359 243.815 485.359 340.844 c 0
 485.359 384.254 485.511 403.806 481.766 436.977 c 1
 462.307 447.01 456.807 450.281 432.031 450.281 c 0
 424.906 450.281 404.391 447.062 404.391 413.297 c 0
 404.391 369.141 368.547 333.297 324.391 333.297 c 0
 280.234 333.297 244.391 369.141 244.391 413.297 c 0
 244.391 534.484 322.141 610.281 432.031 610.281 c 0
 498.016 610.281 542 589 584.276 561.21 c 1
EndSplineSet
Validated: 524321
EndChar

StartChar: afii57673
Encoding: 43 1497 50
Width: 274
VWidth: 995
Flags: W
HStem: 223.349 383.886
VStem: 64.24 160<248.397 582.395>
LayerCount: 2
Back
SplineSet
140.485 527.422 m 20
 145.501 454.13 145.521 382.311 140.366 303.18 c 1036
EndSplineSet
Fore
SplineSet
224.24 418.029 m 0
 224.24 379.006 222.89 339.316 220.197 297.979 c 0
 217.326 253.912 179.232 220.478 135.165 223.349 c 0
 91.0988 226.22 57.6646 264.314 60.5354 308.381 c 0
 63.0227 346.558 64.24 382.691 64.24 418.029 c 0
 64.24 453.026 63.0473 487.251 60.672 521.96 c 0
 57.6571 566.017 90.9665 604.22 135.023 607.235 c 0
 179.08 610.25 217.284 576.941 220.299 532.884 c 0
 222.915 494.656 224.24 456.673 224.24 418.029 c 0
EndSplineSet
Validated: 524321
EndChar

StartChar: afii57674
Encoding: 44 1498 51
Width: 669
VWidth: 990
Flags: W
HStem: 454.981 160<227.878 461.94>
VStem: 444.904 160<-353.833 63.7975> 475.451 160<-54.6141 441.298>
LayerCount: 2
Back
SplineSet
70.6396 471.202 m 16
 153.067 502.224 231.646 534.981 334.705 534.981 c 0
 512.919 534.981 517.451 446.68 517.451 300.117 c 0
 517.451 217.193 511.992 136.189 505.5 64.0498 c 8
 492.945 -75.457 486.904 -192.903 486.904 -294.624 c 1036
EndSplineSet
Fore
SplineSet
372.705 614.981 m 0xa0
 459.984 614.981 526.712 592.331 568.294 551 c 0
 629.11 490.551 635.451 409.607 635.451 300.117 c 0xa0
 635.451 213.697 629.792 130.372 623.178 56.8789 c 0
 610.777 -80.9199 604.904 -196.074 604.904 -294.624 c 0
 604.904 -338.784 569.064 -374.624 524.904 -374.624 c 0
 480.744 -374.624 444.904 -338.784 444.904 -294.624 c 0xc0
 444.904 -189.733 451.114 -69.9941 463.822 71.2207 c 0
 470.192 142.008 475.451 220.69 475.451 300.117 c 0
 475.451 356.913 476 415 458.012 435 c 0
 442.787 451.927 416.71 454.981 372.705 454.981 c 0
 287.243 454.981 221.648 428.255 136.818 396.329 c 0
 95.4883 380.775 49.3213 401.694 33.7666 443.024 c 0
 18.2119 484.354 39.1318 530.521 80.4609 546.075 c 0
 160.478 576.189 251.999 614.981 372.705 614.981 c 0xa0
EndSplineSet
Validated: 524321
EndChar

StartChar: afii57675
Encoding: 45 1499 52
Width: 614
VWidth: 1000
Flags: W
HStem: -11.7109 160<147.722 409.424> 447.212 160<169.653 378.246>
VStem: 427.842 160<153.929 397.572>
LayerCount: 2
Back
SplineSet
134.201 495.513 m 20
 180.611 515.005 214.73 527.212 269.964 527.212 c 4
 333.102 527.212 387.793 509.469 427.957 479.124 c 4
 482.011 438.284 501.842 387.633 501.842 310.565 c 4
 501.842 244.451 490.703 191.94 478.642 137.262 c 4
 469.711 96.7744 444.644 73.2002 395.782 70.6484 c 4
 287.561 64.9971 169.238 66.7627 96.832 107.204 c 1036
EndSplineSet
Fore
SplineSet
405.8 150.864 m 1
 417.823 205.371 427.842 253.606 427.842 310.565 c 0
 427.842 415.748 362.505 447.212 275.964 447.212 c 0
 233.161 447.212 216.604 440.832 171.18 421.754 c 0
 130.465 404.654 83.543 423.819 66.4424 464.534 c 0
 49.3428 505.249 68.5078 552.171 109.223 569.271 c 0
 156.837 589.269 208.476 607.212 275.964 607.212 c 0
 451.727 607.212 587.842 505.621 587.842 310.565 c 0
 587.842 193.912 561 78 518 35 c 0
 474.405 -8.59466 407.245 -11.7109 319.714 -11.7109 c 0
 232.257 -11.7109 141.103 -5.80469 63.8213 37.3604 c 0
 25.2676 58.8936 11.4541 107.661 32.9883 146.214 c 0
 54.5215 184.768 103.288 198.582 141.842 177.048 c 0
 173.541 159.344 242.983 148.289 319.714 148.289 c 0
 345.275 148.289 379.759 149.507 405.8 150.864 c 1
EndSplineSet
Validated: 524321
EndChar

StartChar: afii57676
Encoding: 46 1500 53
Width: 619
VWidth: 1000
Flags: W
HStem: -9.90625 160<117.162 340.622> 447.625 160<181.133 408.071>
VStem: 38.0938 160<605.245 907.239> 434.547 160<273.461 420.007>
LayerCount: 2
Back
SplineSet
146.189 78.3066 m 24
 198.072 75.1035 232.863 70.0947 279.223 70.0947 c 0
 387.637 70.0947 493.552 253.329 493.552 365.724 c 0
 493.552 502.107 372.626 533.895 207.778 526.677 c 8
 153.701 524.31 108.609 504.756 70.6396 548.027 c 1
 83.0771 628.392 109.492 784.049 90.3477 854.914 c 1036
EndSplineSet
Fore
SplineSet
181.133 602.855 m 1
 204.547 605.625 241.831 607.625 270.406 607.625 c 0
 459.357 607.625 594.547 539.215 594.547 365.719 c 0
 594.547 229.796 477.415 -9.90625 300.219 -9.90625 c 0
 247.5 -9.90625 210.625 -4.53125 162.266 -1.54688 c 0
 118.188 1.1875 84.625 39.1562 87.3438 83.2344 c 0
 90.0625 127.312 128.047 160.875 172.125 158.156 c 0
 227.531 154.734 260.234 150.094 300.219 150.094 c 0
 359.816 150.094 434.547 302 434.547 365.719 c 0
 434.547 440 358.571 447.625 270.406 447.625 c 0
 226.858 447.625 207.846 440.234 155.547 440.234 c 0
 101.579 440.234 -4 440 12.5781 560.266 c 0
 20.9336 620.881 38.0938 721.344 38.0938 787.938 c 0
 38.0938 809.891 35.8438 827.656 34.1094 834.047 c 0
 22.5938 876.688 47.8594 920.625 90.4844 932.141 c 0
 133.109 943.656 177.062 918.406 188.578 875.781 c 0
 196.469 846.578 198.094 818.016 198.094 787.938 c 0
 198.094 727.25 189.507 659.019 181.133 602.855 c 1
EndSplineSet
Validated: 524321
EndChar

StartChar: afii57677
Encoding: 47 1501 54
Width: 733
VWidth: 996
Flags: W
HStem: -9.89062 160<291.679 535.933> 445.062 160<283.659 504.473>
VStem: 116.703 160<163.414 411.74> 543.562 160<158.514 404.217>
LayerCount: 2
Back
SplineSet
596.726 86.8926 m 20
 544.629 75.4141 440.286 70.1162 367.058 70.1162 c 12
 280.426 70.1162 204.938 97.9307 197.786 213.957 c 12
 190.612 330.341 196.727 420.667 208.117 512.765 c 1036
104.012 490.513 m 20
 198.094 516.17 285.543 520.577 386.131 524.686 c 12
 501.676 529.397 609.088 490.424 617.388 339.521 c 4
 622.592 244.924 629.305 143.892 593.547 97.1357 c 1036
EndSplineSet
Fore
SplineSet
406.016 605.062 m 0
 531.481 605.062 627.986 553.957 672.172 459.203 c 0
 701.085 397.181 703.562 318.825 703.562 232.219 c 0
 703.562 181.068 697.489 121.874 678.524 80.8975 c 1
 675.945 46.5918 651.247 16.5439 615.938 8.76562 c 0
 549.875 -5.79688 447.031 -9.89062 369.062 -9.89062 c 0
 278.38 -9.89062 233.669 11.0356 182.376 57 c 0
 121 112 116.703 203.302 116.703 311.312 c 0
 116.703 346.403 117.91 379.626 120.009 411.74 c 1
 79.7002 404.544 39.8125 429.208 28.8281 469.469 c 0
 17.2188 512.062 42.3594 556.078 84.9688 567.688 c 0
 181.009 593.879 287.874 605.062 406.016 605.062 c 0
282.575 438.785 m 1
 278.88 397.888 276.703 356.478 276.703 311.312 c 0
 276.703 267.506 273.098 192.801 295.319 169 c 0
 309.891 153.391 333.678 150.109 369.062 150.109 c 0
 418.779 150.109 488.047 153.54 536.894 158.618 c 1
 540.816 173.771 543.562 200.699 543.562 232.219 c 0
 543.562 394 531 445.062 406.016 445.062 c 0
 363.647 445.062 319.822 441.771 282.575 438.785 c 1
EndSplineSet
Validated: 524321
EndChar

StartChar: afii57678
Encoding: 48 1502 55
Width: 687
VWidth: 1000
Flags: W
HStem: -8.26562 158.875<304.294 462.438> 448.188 160<304.933 464.935>
VStem: 47 160<35.8231 354.602> 502.609 160<173.777 409.04>
LayerCount: 2
Back
SplineSet
147.555 372.431 m 20
 201.445 448.227 275.045 528.191 393.764 528.191 c 4
 517.118 528.191 582.604 435.545 582.604 318.426 c 4
 582.604 203.636 553.057 77.3672 450.821 69.8086 c 4
 420.185 67.5439 391.197 67.8682 363.421 71.1738 c 1029
115 508.906 m 20
 138.312 389.949 126.993 233.318 126.993 95.0273 c 1052
EndSplineSet
Fore
SplineSet
190.196 536.232 m 1
 242.554 577.217 309.168 608.188 393.766 608.188 c 0
 571.297 608.188 662.609 468.281 662.609 318.422 c 0
 662.609 158.216 609.473 1.30745 456.719 -9.96875 c 0
 421.819 -12.5513 387.611 -12.2778 353.969 -8.26562 c 0
 310.109 -3.04688 278.766 36.7812 283.984 80.625 c 0
 289.203 124.484 329.031 155.828 372.875 150.609 c 0
 409.015 146.315 451.5 147.5 463 157 c 0
 492.452 181.33 502.609 260.45 502.609 318.422 c 0
 502.609 397.094 466.578 448.188 393.766 448.188 c 0
 312.296 448.188 259 395 209.691 322.045 c 1
 210.123 245.491 207 165.449 207 95.0312 c 0
 207 50.875 171.156 15.0312 127 15.0312 c 0
 82.8281 15.0312 47 50.875 47 95.0312 c 0
 47 165.266 49.7344 237.781 49.7344 306.078 c 0
 49.7344 376.312 46.5625 442.109 36.5 493.516 c 0
 28 536.859 56.2812 578.922 99.6094 587.406 c 0
 138.831 595.098 177.004 572.672 190.196 536.232 c 1
EndSplineSet
Validated: 524321
EndChar

StartChar: afii57679
Encoding: 49 1503 56
Width: 244
VWidth: 1000
Flags: W
VStem: 43.1768 160<-364.804 588.347>
LayerCount: 2
Back
SplineSet
99.4111 531.906 m 24
 100.1 205.236 100.488 20.9619 101.177 -305.708 c 1052
EndSplineSet
Fore
SplineSet
203.177 -305.539 m 2
 203.27 -349.699 167.505 -385.615 123.345 -385.708 c 0
 79.1855 -385.801 43.2695 -350.037 43.1768 -305.877 c 2
 41.4111 531.738 l 2
 41.3184 575.898 77.083 611.812 121.242 611.906 c 0
 165.402 611.999 201.318 576.235 201.411 532.075 c 2
 203.177 -305.539 l 2
EndSplineSet
Validated: 524321
EndChar

StartChar: afii57680
Encoding: 50 1504 57
Width: 460
VWidth: 1000
Flags: W
HStem: -9.37109 161.971<34.7888 260.473> 446.9 160<135.66 242.538>
VStem: 274.882 160<168.379 406.732>
LayerCount: 2
Back
SplineSet
160.338 511.895 m 20
 175.054 521.513 194.104 526.9 217.479 526.9 c 4
 328.094 526.9 359.882 365.038 359.882 257.56 c 4
 359.882 111.067 310.494 70.6289 131.974 70.6289 c 4
 121.153 70.6289 110.477 71.0215 97.3906 72.5938 c 1036
EndSplineSet
Fore
SplineSet
212.479 606.9 m 0
 381.878 606.9 434.882 407.698 434.882 257.56 c 0
 434.882 73 347 -14 126.974 -9.37109 c 0
 114.247 -9.10334 99.4717 -8.83203 82.8477 -6.83496 c 0
 39.9973 -1.68684 7.26945 34.7556 12.9619 82.1367 c 0
 17.8407 122.746 52.3937 152.6 92.3036 152.6 c 0
 149.942 152.6 233 147 257.702 172 c 0
 272.337 186.811 274.882 215.868 274.882 257.56 c 0
 274.882 314.258 256.306 446.9 212.479 446.9 c 0
 195 446.9 182.453 431.896 155.429 431.896 c 0
 114.17 431.896 75.3392 465.176 75.3392 511.804 c 0
 75.3392 576.472 147.217 606.9 212.479 606.9 c 0
EndSplineSet
Validated: 524321
EndChar

StartChar: afii57681
Encoding: 51 1505 58
Width: 673
VWidth: 1000
Flags: W
HStem: -12.9531 160.015<287.807 426.945> 453.688 160<284.919 442.045>
VStem: 37.5 160<230.72 358.207> 490.25 160<218.154 404.414>
LayerCount: 2
Back
SplineSet
140.604 499.928 m 20
 124.713 430.941 109.734 330.914 122.014 257.012 c 12
 138.882 155.493 275.572 64.4785 369.605 67.1104 c 12
 430.005 68.8018 461.562 97.7559 505.771 136.328 c 20
 548.508 173.617 585.417 294.579 563.965 379.657 c 4
 544.56 456.614 475.619 534.296 376.588 533.68 c 4
 310.896 533.271 207.581 498.305 171.871 427.133 c 1036
EndSplineSet
Fore
SplineSet
192.624 560.713 m 1
 252.816 599.011 317.706 613.688 377.641 613.688 c 0
 530 613.688 650.25 478.923 650.25 324.641 c 0
 650.25 141.782 529.092 -12.9531 365.594 -12.9531 c 0
 297.639 -12.9531 202.215 17.069 131 87 c 0
 78.1987 138.849 37.5 210.836 37.5 318.25 c 0
 37.5 389.844 49.8438 462.328 62.6406 517.891 c 0
 76.2084 576.734 148.12 598.897 192.624 560.713 c 1
198.709 351.778 m 1
 197.931 340.276 197.5 329.016 197.5 318.25 c 0
 197.5 256.42 223 221 262 191 c 0
 298.816 162.68 335.148 147.062 365.594 147.062 c 0
 443.716 147.062 490.25 243.109 490.25 324.641 c 0
 490.25 402.147 433 453.688 377.891 453.688 c 0
 333.832 453.688 261.723 427.7 243.375 391.25 c 0
 233.757 372.074 217.455 358.449 198.709 351.778 c 1
EndSplineSet
Validated: 524321
EndChar

StartChar: afii57682
Encoding: 52 1506 59
Width: 672
VWidth: 1000
Flags: W
VStem: 30.5 159.984<433.478 576.733> 478.781 160<271.249 553.007>
LayerCount: 2
Back
SplineSet
531.422 526.808 m 20
 563.268 494.631 560.194 394.372 553.179 341.872 c 4
 536.778 219.135 481.424 138.991 369.891 94.6318 c 20
 292.188 63.7275 187.993 67.2588 128.915 112.646 c 1036
109.489 518.261 m 20
 111.172 356.883 272.062 237.331 385.338 191.127 c 1036
EndSplineSet
Fore
SplineSet
469.5 472 m 16
 446 512.5 445.48 553.316 476.141 583.672 c 0
 507.531 614.734 558.508 614.508 589.281 583.078 c 0
 629.5 542 638.781 500.5 638.781 412.891 c 0
 638.781 115 439 -5.54688 261.938 -5.54688 c 0
 199.625 -5.54688 134.484 8.25 81.1719 49.2031 c 0
 46.1562 76.1094 39.5781 126.359 66.4688 161.391 c 0
 93.375 196.406 143.641 202.984 178.656 176.078 c 0
 195.109 163.456 238.87 151.979 279.197 155.139 c 1
 164.016 222.089 32.2949 344.517 30.5 517.422 c 0
 30.0312 561.578 65.5 597.797 109.656 598.25 c 0
 153.812 598.719 190.031 563.25 190.484 519.094 c 0
 191.641 408.172 317.516 305.594 416.547 265.203 c 0
 426.661 261.076 435.476 255.111 442.763 247.852 c 1
 466.718 287.858 478.781 344.089 478.781 412.891 c 0
 478.781 433.759 481.211 451.817 469.5 472 c 16
EndSplineSet
Validated: 524321
EndChar

StartChar: afii57683
Encoding: 53 1507 60
Width: 672
VWidth: 1000
Flags: W
HStem: 452.766 160<203.675 417.569>
VStem: 41.4062 157.078<280.444 442.555> 491.891 160<-296.488 356.049>
LayerCount: 2
Back
SplineSet
331.5 215.185 m 0
 309.591 202.245 283.447 192.455 249.146 192.455 c 8
 167.188 192.455 118.484 255 118.484 357.049 c 0
 118.484 404.524 125.526 451.175 116.696 499.739 c 1
 185.313 521.183 267.292 532.771 345.021 532.771 c 0
 543.938 532.771 572.48 305.897 572.48 188.923 c 0
 572.48 74.7393 571.896 18.3291 571.897 -113.813 c 0
 571.897 -140.92 571.069 -210.234 568.792 -241.362 c 1032
EndSplineSet
Fore
SplineSet
201.116 438.584 m 1
 200.85 406.978 198.484 379.974 198.484 357.047 c 0
 198.484 279.306 232 253 290.812 284.062 c 0
 329.872 304.692 377.922 293.891 400.391 255.859 c 0
 422.844 217.844 410.203 168.75 372.188 146.297 c 0
 341.328 128.078 298.828 112.453 249.141 112.453 c 0
 128.828 112.453 55.4844 202.031 41.4062 310.359 c 0
 35.1046 360.788 46.7218 437.454 37.9844 485.422 c 0
 30.4219 527.031 52.4688 563.484 92.8281 576.094 c 0
 170.797 600.469 259.328 612.766 345.016 612.766 c 0
 621.734 612.766 652.484 304.453 652.484 188.922 c 0
 652.484 74.4844 651.891 18.125 651.891 -113.484 c 0
 651.891 -113.516 651.891 -113.781 651.891 -113.812 c 0
 652 -142.75 651.266 -210.438 648.578 -247.203 c 0
 645.359 -291.234 607 -324.375 562.953 -321.156 c 0
 518.906 -317.922 485.781 -279.562 489 -235.531 c 0
 490.875 -210.016 491.891 -139.094 491.891 -113.812 c 0
 491.891 -113.781 491.891 -113.516 491.891 -113.484 c 0
 492 18.7188 492.484 75.1875 492.484 188.922 c 0
 492.484 309.75 464.828 452.766 345.016 452.766 c 0
 297.367 452.766 247.08 447.695 201.116 438.584 c 1
EndSplineSet
Validated: 524321
EndChar

StartChar: afii57684
Encoding: 54 1508 61
Width: 647
VWidth: 1000
Flags: W
HStem: -6.46875 160<88.2272 410.459> 208.141 159.797<195.409 318.123> 449.547 160<219.489 400.268>
VStem: 457.516 160<217.204 395.287>
LayerCount: 2
Back
SplineSet
160.22 478.856 m 20
 197.472 511.439 246.109 529.541 304.669 529.541 c 4
 471.371 529.541 537.522 415.131 537.522 307.404 c 4
 537.522 209.737 490.156 134.374 442.277 79.1758 c 12
 438.795 75.1611 434.059 76.3799 428.591 76.2793 c 20
 320.246 74.292 159.848 64.5791 107 99.4492 c 1036
116.884 494.786 m 20
 113.056 413.349 101.146 346.642 155.657 307.979 c 4
 178.129 292.042 222.025 286.139 259.078 288.036 c 1028
EndSplineSet
Fore
SplineSet
148.176 568.433 m 1
 193.885 595.453 247.725 609.547 304.672 609.547 c 0
 522.766 609.547 617.516 451 617.516 307.406 c 0
 617.516 182.562 555.5 87 502.703 26.75 c 0
 485.225 6.80506 461.99 -3.01093 434.188 -3.8125 c 0
 393 -5 339.374 -6.46875 286.703 -6.46875 c 0
 201.777 -6.46875 117.244 -2.91817 62.9375 32.6719 c 0
 26.0781 57 15.9062 106.656 40.2188 143.516 c 0
 67.5611 184.942 113.842 186.715 150.656 166.516 c 0
 168 157 222.303 153.531 286.703 153.531 c 0
 322.564 153.531 360.223 154.668 395.541 155.559 c 1
 423.977 202.562 457.516 246.94 457.516 307.406 c 0
 457.516 373.219 424.125 449.547 304.672 449.547 c 0
 262.641 449.547 234.859 437.859 212.891 418.641 c 0
 206.808 413.319 200.144 409.084 193.137 405.921 c 1
 192 365 236 367 254.984 367.938 c 0
 299.097 370.118 336.719 336.234 338.969 292.125 c 0
 341.234 248.031 307.266 210.406 263.172 208.141 c 0
 105.352 202.565 33.0781 280.833 33.0781 413.234 c 0
 33.0781 443.25 35.6875 471.266 36.9688 498.547 c 0
 39.4998 552.27 94.2662 591.367 148.176 568.433 c 1
EndSplineSet
Validated: 524321
EndChar
